<svg width="98" height="66" viewBox="0 0 98 66" fill="none" xmlns="http://www.w3.org/2000/svg">
<path d="M23.4395 0.999023C14.3378 3.02847 -0.866948 11.1062 11.1272 27.1818C12.8125 29.4405 17.0591 30.6522 20.8668 27.8931C22.2205 26.4191 23.3494 23.3513 17.0349 22.8719C10.7205 22.3926 5.98806 29.0965 4.41117 32.5084C2.89487 36.0841 2.15281 45.9505 11.3149 56.8104M1.59446 56.7607C5.28594 58.8612 15.0847 65.4755 15.2521 65.4707C15.4196 65.4658 16.7204 55.9917 19.4372 47.9664" stroke="#7E5C45" stroke-linecap="round"/>
<path d="M38.5635 23.381C38.5697 23.4116 38.5674 23.44 38.5567 23.466C38.5453 23.4883 38.5219 23.5109 38.4867 23.5339C38.4515 23.557 38.4022 23.5789 38.3386 23.5996C38.2789 23.6196 38.2011 23.6393 38.1054 23.6586C38.0097 23.6779 37.9285 23.6902 37.8618 23.6957C37.799 23.7004 37.7469 23.6989 37.7056 23.6913C37.6642 23.6837 37.6339 23.6719 37.6147 23.6558C37.5948 23.6359 37.5817 23.6107 37.5756 23.58L36.2782 17.1411L34.1874 17.5623C34.2622 18.4677 34.3159 19.2678 34.3483 19.9626C34.3807 20.6574 34.3896 21.2653 34.375 21.7862C34.3596 22.3034 34.3162 22.7405 34.2447 23.0976C34.1732 23.4547 34.0679 23.7528 33.9288 23.992C33.7928 24.2266 33.6203 24.4088 33.4114 24.5386C33.2055 24.6638 32.9589 24.7553 32.6717 24.8131C32.6334 24.8209 32.5974 24.8201 32.5637 24.811C32.53 24.8019 32.4982 24.7824 32.4682 24.7525C32.4422 24.7219 32.418 24.681 32.3957 24.6297C32.3772 24.5776 32.3603 24.5133 32.3448 24.4367C32.3255 24.341 32.3136 24.2617 32.3089 24.1989C32.308 24.1353 32.3114 24.0828 32.319 24.0414C32.3266 24.0001 32.3403 23.9694 32.3602 23.9494C32.3839 23.9287 32.4111 23.9153 32.4418 23.9091C32.5834 23.8806 32.7098 23.8252 32.8207 23.7431C32.9355 23.6602 33.0345 23.5287 33.1178 23.3485C33.2003 23.1646 33.2646 22.9205 33.3109 22.6163C33.3603 22.3075 33.3889 21.9152 33.3966 21.4394C33.4036 20.9599 33.3893 20.3849 33.3539 19.7147C33.3185 19.0444 33.2568 18.2539 33.169 17.3432C33.1557 17.1785 33.1712 17.0578 33.2156 16.9811C33.2591 16.9006 33.3364 16.8492 33.4475 16.8268L36.7502 16.1614C36.8575 16.1397 36.9486 16.1572 37.0238 16.2138C37.0982 16.2666 37.1489 16.36 37.1759 16.494L38.5635 23.381ZM45.0381 22.0824C45.0435 22.1092 45.0409 22.1357 45.0302 22.1617C45.0195 22.1878 44.9984 22.2119 44.9671 22.2342C44.9349 22.2526 44.889 22.2719 44.8293 22.2919C44.7695 22.3119 44.6937 22.3311 44.6018 22.3496C44.5099 22.3682 44.4325 22.3798 44.3697 22.3844C44.3069 22.3891 44.2552 22.3896 44.2146 22.3858C44.1732 22.3782 44.1426 22.3645 44.1226 22.3446C44.1027 22.3247 44.09 22.3013 44.0846 22.2745L43.4851 19.2992C43.455 19.1498 43.4284 18.9978 43.4052 18.8431C43.3812 18.6845 43.3599 18.5294 43.3413 18.3778C43.2841 18.5487 43.2169 18.7196 43.1398 18.8906C43.0657 19.0569 42.9897 19.2237 42.9118 19.3908L41.3218 22.8312C41.3011 22.8672 41.2816 22.8991 41.2633 22.9267C41.2488 22.9535 41.2258 22.9781 41.1945 23.0003C41.1661 23.018 41.1275 23.0337 41.0785 23.0476C41.0302 23.0653 40.9697 23.0815 40.897 23.0961C40.8127 23.1131 40.743 23.1231 40.6879 23.1263C40.6327 23.1294 40.5868 23.1287 40.55 23.1242C40.5163 23.115 40.4894 23.1005 40.4695 23.0806C40.4534 23.06 40.4426 23.0362 40.4372 23.0094L39.3933 17.8284C39.3879 17.8016 39.3886 17.7755 39.3955 17.7503C39.4062 17.7242 39.4272 17.7 39.4586 17.6778C39.4938 17.6547 39.5416 17.6351 39.6021 17.619C39.6619 17.599 39.7358 17.5801 39.8238 17.5623C40.0076 17.5253 40.1371 17.5152 40.2122 17.5319C40.2865 17.5448 40.3295 17.58 40.341 17.6374L40.944 20.63C40.9741 20.7794 41.0004 20.9295 41.0228 21.0804C41.0445 21.2274 41.0642 21.3749 41.082 21.5227C41.1408 21.3594 41.2003 21.2 41.2606 21.0444C41.324 20.8842 41.3938 20.7267 41.4702 20.5718L43.0809 17.0854C43.0977 17.0501 43.1153 17.0187 43.1336 16.9911C43.1558 16.9627 43.183 16.9393 43.2151 16.9209C43.2503 16.8979 43.2924 16.8794 43.3414 16.8655C43.3897 16.8479 43.454 16.8309 43.5344 16.8147C43.6148 16.7985 43.6826 16.7888 43.7378 16.7857C43.796 16.7779 43.842 16.7786 43.8757 16.7878C43.9132 16.7962 43.9401 16.8107 43.9562 16.8313C43.9761 16.8512 43.9892 16.8765 43.9954 16.9071L45.0381 22.0824ZM50.3581 20.1857C50.3712 20.2508 50.3809 20.3086 50.3871 20.3592C50.3925 20.4059 50.393 20.4476 50.3884 20.4844C50.3869 20.5166 50.3812 20.5476 50.3713 20.5775C50.3644 20.6028 50.3411 20.6454 50.3014 20.7052C50.2647 20.7604 50.1962 20.8359 50.096 20.9318C49.995 21.0239 49.8776 21.1133 49.7436 21.2001C49.6127 21.2822 49.4665 21.3575 49.305 21.4259C49.1434 21.4943 48.9727 21.5467 48.7927 21.5829C48.4213 21.6578 48.0796 21.6629 47.7677 21.5982C47.4558 21.5335 47.1787 21.4041 46.9363 21.2098C46.697 21.011 46.4914 20.7516 46.3193 20.4316C46.1503 20.107 46.0207 19.7207 45.9304 19.2727C45.8278 18.7634 45.8011 18.3145 45.8503 17.9261C45.9026 17.533 46.0125 17.198 46.1798 16.9213C46.3511 16.6437 46.571 16.4201 46.8396 16.2504C47.1113 16.0761 47.4176 15.9546 47.7584 15.8859C47.9231 15.8528 48.0851 15.8361 48.2444 15.8358C48.4076 15.8348 48.5593 15.8461 48.6995 15.8697C48.8397 15.8932 48.9662 15.9275 49.0789 15.9725C49.1954 16.0168 49.2812 16.0573 49.3364 16.094C49.3917 16.1307 49.4296 16.1609 49.4503 16.1846C49.4749 16.2075 49.4968 16.237 49.516 16.273C49.5344 16.3051 49.5502 16.3438 49.5632 16.389C49.5763 16.4342 49.5898 16.4912 49.6037 16.5601C49.6338 16.7095 49.6378 16.8183 49.6157 16.8865C49.5928 16.9509 49.5564 16.9881 49.5067 16.9981C49.4492 17.0097 49.376 16.9925 49.2871 16.9467C49.2012 16.8963 49.0931 16.8443 48.9628 16.7909C48.8325 16.7374 48.6789 16.6967 48.5019 16.6686C48.3279 16.6359 48.1299 16.6419 47.9078 16.6867C47.4521 16.7785 47.1372 17.0252 46.9631 17.4269C46.7921 17.824 46.7737 18.3557 46.9079 19.022C46.9751 19.3551 47.0647 19.6419 47.1769 19.8823C47.2922 20.118 47.428 20.3078 47.5845 20.4516C47.741 20.5954 47.9158 20.6917 48.1089 20.7405C48.3051 20.7846 48.5181 20.7836 48.7478 20.7373C48.9661 20.6933 49.1506 20.6202 49.3014 20.5181C49.4522 20.416 49.5788 20.3128 49.6813 20.2085C49.7869 20.0995 49.8733 20.0044 49.9406 19.9231C50.011 19.8372 50.0691 19.7896 50.1151 19.7804C50.1419 19.775 50.1664 19.778 50.1886 19.7895C50.2109 19.8009 50.2316 19.8247 50.2508 19.8606C50.273 19.892 50.2919 19.936 50.3073 19.9927C50.3257 20.0448 50.3427 20.1091 50.3581 20.1857ZM54.4084 15.1019C54.4238 15.1785 54.4331 15.2444 54.4363 15.2996C54.4394 15.3547 54.4349 15.4014 54.4227 15.4398C54.4143 15.4773 54.4005 15.508 54.3814 15.5318C54.3615 15.5517 54.3344 15.5651 54.2999 15.5721L52.749 15.8846L53.6471 20.3419C53.6533 20.3725 53.651 20.4008 53.6403 20.4269C53.6289 20.4491 53.6075 20.4714 53.5761 20.4937C53.5447 20.5159 53.4992 20.537 53.4394 20.557C53.3797 20.5771 53.302 20.5967 53.2062 20.616C53.1143 20.6345 53.037 20.6461 52.9742 20.6508C52.9114 20.6555 52.8593 20.654 52.8179 20.6464C52.7803 20.638 52.752 20.6258 52.7328 20.6098C52.7167 20.5891 52.7055 20.5635 52.6994 20.5328L51.8013 16.0755L50.2504 16.388C50.2198 16.3942 50.1895 16.3923 50.1596 16.3824C50.1328 16.3679 50.1082 16.3449 50.086 16.3135C50.0637 16.2822 50.0414 16.2408 50.0192 16.1895C49.9999 16.1336 49.9826 16.0674 49.9672 15.9908C49.9533 15.9219 49.9448 15.8598 49.9416 15.8047C49.9423 15.7488 49.9468 15.702 49.9552 15.6645C49.9666 15.6223 49.9823 15.5913 50.0022 15.5713C50.0213 15.5476 50.0462 15.5326 50.0768 15.5264L54.1263 14.7105C54.1569 14.7043 54.1857 14.7085 54.2125 14.723C54.2424 14.7329 54.2689 14.7555 54.2919 14.7907C54.3141 14.8221 54.3349 14.8657 54.3541 14.9216C54.3764 14.9729 54.3945 15.033 54.4084 15.1019ZM60.2308 19.0213C60.2401 19.0673 60.2317 19.1048 60.2057 19.134C60.1797 19.1631 60.1411 19.1888 60.0898 19.2111C60.0385 19.2334 59.9611 19.255 59.8577 19.2758C59.7582 19.2959 59.6766 19.3063 59.613 19.3072C59.5533 19.3073 59.5077 19.2985 59.4762 19.281C59.4448 19.2634 59.4244 19.2316 59.4152 19.1857L59.311 18.6687C59.1337 18.9555 58.9188 19.194 58.6662 19.3844C58.4175 19.574 58.1381 19.7 57.8279 19.7625C57.556 19.8173 57.3017 19.8307 57.065 19.8026C56.8328 19.7777 56.6247 19.714 56.4407 19.6116C56.2605 19.5085 56.1067 19.3681 55.9793 19.1906C55.8557 19.0122 55.7689 18.7986 55.7187 18.5497C55.6601 18.2587 55.6685 17.994 55.744 17.7557C55.8195 17.5173 55.954 17.3049 56.1476 17.1185C56.3411 16.932 56.5918 16.7719 56.8996 16.6382C57.2066 16.5006 57.5611 16.3914 57.9632 16.3103L58.6754 16.1668L58.5944 15.7648C58.5543 15.5656 58.4978 15.3937 58.4248 15.249C58.3518 15.1044 58.2574 14.9919 58.1416 14.9116C58.0289 14.8267 57.8928 14.7745 57.7334 14.7548C57.5733 14.7312 57.3841 14.7415 57.1658 14.7854C56.9322 14.8325 56.7274 14.9037 56.5514 14.9989C56.3783 15.0896 56.2279 15.1836 56.1002 15.2811C55.9754 15.374 55.871 15.4588 55.7868 15.5355C55.7057 15.6076 55.6422 15.6483 55.5962 15.6576C55.5656 15.6637 55.5372 15.6615 55.5112 15.6508C55.4851 15.6401 55.4594 15.6214 55.4341 15.5946C55.4126 15.5671 55.3934 15.5311 55.3765 15.4867C55.3588 15.4384 55.3442 15.3856 55.3326 15.3282C55.3133 15.2324 55.304 15.1566 55.3047 15.1007C55.3084 15.0401 55.3302 14.98 55.3699 14.9202C55.4135 14.8596 55.4919 14.784 55.6052 14.6934C55.7177 14.5991 55.8508 14.5085 56.0047 14.4217C56.1578 14.3311 56.3285 14.2489 56.5169 14.175C56.7044 14.0974 56.8978 14.0385 57.0969 13.9984C57.4683 13.9236 57.7928 13.902 58.0701 13.9338C58.3475 13.9656 58.5832 14.0476 58.7772 14.1799C58.9704 14.3083 59.1277 14.4858 59.2491 14.7124C59.3704 14.939 59.4635 15.2131 59.5283 15.5348L60.2308 19.0213ZM58.8132 16.8504L58.0033 17.0135C57.7429 17.066 57.5216 17.1345 57.3394 17.219C57.1564 17.2997 57.0106 17.3969 56.902 17.5104C56.7926 17.6201 56.7196 17.7424 56.683 17.8773C56.6495 18.0076 56.6485 18.1512 56.6802 18.3082C56.7342 18.5762 56.8616 18.7737 57.0625 18.9006C57.2665 19.0229 57.5216 19.0532 57.828 18.9914C58.0769 18.9413 58.2939 18.8318 58.4791 18.663C58.668 18.4934 58.8531 18.2549 59.0342 17.9475L58.8132 16.8504ZM66.5779 17.7425C66.5833 17.7693 66.5806 17.7957 66.57 17.8218C66.5593 17.8479 66.5382 17.872 66.5069 17.8943C66.4747 17.9127 66.4288 17.9319 66.369 17.9519C66.3093 17.9719 66.2335 17.9912 66.1416 18.0097C66.0497 18.0282 65.9723 18.0398 65.9095 18.0445C65.8467 18.0492 65.795 18.0497 65.7544 18.0459C65.713 18.0383 65.6824 18.0245 65.6624 18.0046C65.6425 17.9848 65.6298 17.9614 65.6244 17.9346L65.0249 14.9592C64.9948 14.8099 64.9682 14.6579 64.945 14.5032C64.921 14.3446 64.8997 14.1895 64.8811 14.0379C64.8239 14.2088 64.7567 14.3797 64.6796 14.5506C64.6055 14.717 64.5295 14.8837 64.4516 15.0508L62.8616 18.4913C62.8409 18.5273 62.8214 18.5591 62.8031 18.5867C62.7886 18.6136 62.7656 18.6381 62.7342 18.6604C62.7059 18.678 62.6673 18.6938 62.6182 18.7077C62.57 18.7253 62.5095 18.7415 62.4368 18.7562C62.3525 18.7732 62.2828 18.7832 62.2277 18.7864C62.1725 18.7895 62.1265 18.7888 62.0898 18.7843C62.056 18.7751 62.0292 18.7606 62.0093 18.7407C61.9931 18.72 61.9824 18.6963 61.977 18.6695L60.9331 13.4885C60.9277 13.4617 60.9284 13.4356 60.9353 13.4103C60.946 13.3843 60.967 13.3601 60.9984 13.3378C61.0336 13.3148 61.0814 13.2952 61.1419 13.279C61.2017 13.259 61.2756 13.2401 61.3636 13.2224C61.5474 13.1854 61.6769 13.1752 61.752 13.192C61.8263 13.2049 61.8693 13.2401 61.8808 13.2975L62.4838 16.2901C62.5139 16.4394 62.5402 16.5896 62.5626 16.7404C62.5842 16.8875 62.604 17.0349 62.6218 17.1828C62.6806 17.0195 62.7401 16.8601 62.8004 16.7045C62.8638 16.5443 62.9336 16.3868 63.01 16.2319L64.6207 12.7455C64.6375 12.7102 64.6551 12.6788 64.6734 12.6512C64.6956 12.6228 64.7228 12.5994 64.7549 12.581C64.7901 12.5579 64.8322 12.5395 64.8812 12.5256C64.9295 12.5079 64.9938 12.491 65.0742 12.4748C65.1546 12.4586 65.2224 12.4489 65.2776 12.4458C65.3358 12.438 65.3817 12.4387 65.4155 12.4479C65.453 12.4562 65.4798 12.4708 65.496 12.4914C65.5159 12.5113 65.529 12.5366 65.5351 12.5672L66.5779 17.7425ZM64.5378 10.2279C64.5818 10.4461 64.5905 10.6576 64.564 10.8621C64.5375 11.0667 64.468 11.256 64.3557 11.4301C64.2425 11.6003 64.0834 11.7499 63.8783 11.8789C63.6724 12.0041 63.4105 12.0987 63.0927 12.1627C62.8017 12.2214 62.5378 12.2367 62.301 12.2087C62.0681 12.1799 61.8634 12.1136 61.6871 12.0096C61.5138 11.9011 61.3692 11.7569 61.2533 11.577C61.1412 11.3964 61.0604 11.1835 61.011 10.9385C61.0033 10.9002 61.0025 10.8665 61.0086 10.8373C61.0185 10.8074 61.0392 10.7814 61.0705 10.7591C61.1057 10.7361 61.1513 10.7149 61.2072 10.6957C61.2669 10.6757 61.3389 10.6572 61.4231 10.6402C61.515 10.6217 61.589 10.6128 61.6449 10.6135C61.7 10.6104 61.7429 10.6157 61.7736 10.6294C61.8081 10.6424 61.8323 10.6634 61.8461 10.6925C61.8638 10.7208 61.8768 10.756 61.8853 10.7982C61.91 10.9207 61.9519 11.0298 62.011 11.1255C62.0702 11.2212 62.1457 11.2996 62.2377 11.3607C62.3336 11.4211 62.4413 11.4612 62.5608 11.4809C62.6804 11.5007 62.8129 11.4959 62.9584 11.4666C63.1001 11.438 63.2203 11.3919 63.319 11.3282C63.4216 11.2637 63.5034 11.1854 63.5646 11.0934C63.6258 11.0014 63.6647 10.8979 63.6814 10.783C63.6981 10.668 63.6941 10.5493 63.6694 10.4268C63.6617 10.3885 63.6589 10.3551 63.6612 10.3268C63.6665 10.2938 63.6806 10.2651 63.7036 10.2405C63.7304 10.2152 63.7679 10.1937 63.8161 10.176C63.8674 10.1537 63.9371 10.1337 64.0252 10.116C64.1171 10.0975 64.1925 10.0863 64.2515 10.0823C64.3143 10.0776 64.3645 10.0795 64.402 10.0879C64.4434 10.0955 64.4744 10.1111 64.4952 10.1348C64.5159 10.1586 64.5301 10.1896 64.5378 10.2279ZM75.5373 15.9313C75.5435 15.962 75.5412 15.9903 75.5305 16.0164C75.519 16.0386 75.4976 16.0609 75.4663 16.0831C75.4349 16.1054 75.3893 16.1265 75.3296 16.1465C75.2699 16.1665 75.1941 16.1858 75.1022 16.2043C75.0064 16.2236 74.9271 16.2356 74.8643 16.2403C74.8015 16.2449 74.7513 16.2431 74.7138 16.2347C74.6762 16.2264 74.6479 16.2141 74.6287 16.1981C74.6088 16.1782 74.5957 16.1529 74.5895 16.1223L74.1324 13.8534L71.4959 14.3846L71.9531 16.6535C71.9592 16.6841 71.957 16.7125 71.9463 16.7385C71.9348 16.7608 71.9134 16.783 71.882 16.8053C71.8507 16.8275 71.8051 16.8487 71.7454 16.8687C71.6857 16.8887 71.6079 16.9083 71.5122 16.9276C71.4203 16.9461 71.3429 16.9577 71.2801 16.9624C71.2173 16.9671 71.1652 16.9657 71.1238 16.9581C71.0863 16.9497 71.0579 16.9375 71.0387 16.9214C71.0226 16.9007 71.0115 16.8751 71.0053 16.8445L69.9637 11.6749C69.9576 11.6443 69.9583 11.6182 69.9659 11.5968C69.9766 11.5707 69.9976 11.5465 70.029 11.5243C70.0634 11.4974 70.1109 11.4759 70.1714 11.4597C70.2311 11.4397 70.3069 11.4205 70.3989 11.4019C70.4946 11.3827 70.5739 11.3707 70.6367 11.366C70.6987 11.3575 70.7489 11.3593 70.7872 11.3715C70.8248 11.3799 70.8535 11.394 70.8735 11.4139C70.8926 11.43 70.9053 11.4533 70.9115 11.484L71.3351 13.5862L73.9715 13.055L73.5479 10.9527C73.5418 10.9221 73.5444 10.8957 73.5559 10.8734C73.5666 10.8474 73.5876 10.8232 73.619 10.801C73.6496 10.7749 73.6951 10.7537 73.7556 10.7376C73.8154 10.7176 73.8931 10.6979 73.9888 10.6786C74.0807 10.6601 74.1581 10.6485 74.2209 10.6438C74.2829 10.6353 74.3331 10.6371 74.3714 10.6493C74.409 10.6577 74.4377 10.6719 74.4577 10.6917C74.4769 10.7078 74.4895 10.7312 74.4957 10.7618L75.5373 15.9313ZM81.9027 14.6548C81.9081 14.6816 81.9055 14.708 81.8948 14.7341C81.8841 14.7601 81.8631 14.7843 81.8317 14.8066C81.7996 14.825 81.7536 14.8442 81.6939 14.8642C81.6342 14.8842 81.5583 14.9035 81.4664 14.922C81.3745 14.9405 81.2972 14.9521 81.2344 14.9568C81.1716 14.9615 81.1199 14.9619 81.0792 14.9582C81.0379 14.9506 81.0072 14.9368 80.9873 14.9169C80.9673 14.897 80.9546 14.8737 80.9492 14.8469L80.3497 11.8715C80.3197 11.7222 80.293 11.5702 80.2698 11.4154C80.2458 11.2569 80.2245 11.1018 80.2059 10.9501C80.1487 11.1211 80.0816 11.292 80.0044 11.4629C79.9304 11.6293 79.8544 11.796 79.7765 11.9631L78.1864 15.4036C78.1658 15.4396 78.1463 15.4714 78.1279 15.499C78.1134 15.5259 78.0905 15.5504 78.0591 15.5727C78.0308 15.5903 77.9921 15.6061 77.9431 15.6199C77.8949 15.6376 77.8344 15.6538 77.7616 15.6685C77.6774 15.6854 77.6077 15.6955 77.5525 15.6986C77.4974 15.7018 77.4514 15.7011 77.4146 15.6965C77.3809 15.6874 77.3541 15.6729 77.3341 15.653C77.318 15.6323 77.3072 15.6086 77.3018 15.5818L76.2579 10.4007C76.2525 10.3739 76.2533 10.3479 76.2601 10.3226C76.2708 10.2965 76.2918 10.2724 76.3232 10.2501C76.3584 10.2271 76.4063 10.2075 76.4668 10.1913C76.5265 10.1713 76.6004 10.1524 76.6885 10.1347C76.8723 10.0977 77.0017 10.0875 77.0768 10.1043C77.1512 10.1172 77.1941 10.1523 77.2057 10.2098L77.8086 13.2024C77.8387 13.3517 77.865 13.5018 77.8874 13.6527C77.9091 13.7998 77.9288 13.9472 77.9467 14.0951C78.0054 13.9318 78.0649 13.7724 78.1252 13.6168C78.1886 13.4566 78.2585 13.299 78.3349 13.1442L79.9455 9.65775C79.9623 9.62249 79.9799 9.59105 79.9983 9.56345C80.0204 9.53507 80.0476 9.51167 80.0798 9.49323C80.115 9.4702 80.1571 9.45175 80.2061 9.4379C80.2543 9.42021 80.3186 9.40326 80.3991 9.38706C80.4795 9.37086 80.5473 9.36118 80.6024 9.35804C80.6606 9.3503 80.7066 9.351 80.7403 9.36014C80.7779 9.36852 80.8047 9.38303 80.8208 9.40369C80.8408 9.42358 80.8538 9.44885 80.86 9.47948L81.9027 14.6548ZM90.5428 12.9498C90.5474 12.9728 90.544 12.9954 90.5326 13.0176C90.5203 13.036 90.4962 13.0548 90.4603 13.074C90.4281 13.0924 90.3818 13.1097 90.3213 13.1259C90.2654 13.1452 90.1915 13.164 90.0996 13.1825C89.9924 13.2041 89.9035 13.2181 89.8331 13.2243C89.7664 13.2298 89.7109 13.231 89.6664 13.228C89.6251 13.2204 89.5929 13.2089 89.5699 13.1936C89.5461 13.1745 89.5258 13.1527 89.5089 13.1282L88.689 11.9067C88.5815 11.7491 88.4752 11.6171 88.3701 11.5107C88.268 11.3998 88.1614 11.3157 88.0503 11.2584C87.9391 11.2011 87.8169 11.168 87.6836 11.1589C87.5533 11.1453 87.4039 11.1555 87.2354 11.1895L86.8506 11.267L87.3216 13.6048C87.3255 13.6239 87.3198 13.645 87.3045 13.668C87.2884 13.6872 87.2624 13.7064 87.2264 13.7256C87.1904 13.7448 87.1422 13.7625 87.0817 13.7786C87.0258 13.7979 86.9577 13.8156 86.8772 13.8318C86.7968 13.848 86.7252 13.8584 86.6624 13.8631C86.6004 13.8716 86.549 13.874 86.5084 13.8702C86.4678 13.8665 86.4364 13.8589 86.4142 13.8474C86.3912 13.8321 86.3777 13.8149 86.3739 13.7957L85.9028 11.458L85.518 11.5355C85.3495 11.5694 85.2059 11.6183 85.0873 11.6821C84.9679 11.742 84.8661 11.8203 84.782 11.9169C84.6978 12.0136 84.6283 12.1332 84.5733 12.2757C84.5214 12.4137 84.4765 12.5762 84.4384 12.7632L84.1555 14.2068C84.1533 14.2352 84.143 14.2632 84.1246 14.2908C84.1093 14.3138 84.0841 14.3368 84.0489 14.3598C84.0167 14.3783 83.9669 14.3983 83.8996 14.4198C83.836 14.4406 83.7525 14.4614 83.6491 14.4822C83.5611 14.5 83.4856 14.5112 83.4228 14.5159C83.3608 14.5244 83.3095 14.5267 83.2688 14.523C83.2321 14.5184 83.2045 14.51 83.1861 14.4978C83.1669 14.4818 83.155 14.4622 83.1504 14.4393C83.1457 14.4163 83.1438 14.3868 83.1445 14.3508C83.1483 14.3102 83.1578 14.2585 83.173 14.1956L83.4789 12.7772C83.517 12.5902 83.565 12.4231 83.623 12.2759C83.681 12.1288 83.7463 11.9981 83.819 11.8838C83.8954 11.7688 83.9807 11.6679 84.0748 11.5812C84.1719 11.4899 84.2814 11.4101 84.4031 11.3417L84.4008 11.3303C84.3027 11.3181 84.2031 11.2984 84.1019 11.2709C84.0038 11.2389 83.9022 11.1896 83.7972 11.1231C83.6914 11.0528 83.5832 10.961 83.4727 10.8478C83.3623 10.7346 83.2475 10.5903 83.1285 10.4151L82.4215 9.36809C82.3923 9.32216 82.3681 9.28121 82.3489 9.24523C82.3297 9.20925 82.3166 9.17403 82.3097 9.13957C82.3058 9.12042 82.3081 9.10203 82.3165 9.0844C82.328 9.06217 82.3479 9.04222 82.3762 9.02456C82.4083 9.00613 82.4527 8.98921 82.5094 8.97381C82.5691 8.95381 82.6449 8.93455 82.7368 8.91603C82.8402 8.8952 82.9272 8.88167 82.9976 8.87544C83.0673 8.86538 83.1248 8.86377 83.17 8.8706C83.2152 8.87743 83.2497 8.8904 83.2735 8.90952C83.3011 8.92787 83.3218 8.95159 83.3356 8.98068L84.0301 10.084C84.1284 10.2355 84.224 10.3637 84.3168 10.4685C84.4135 10.5726 84.5155 10.6536 84.6228 10.7117C84.7294 10.766 84.8417 10.7991 84.9596 10.8112C85.0807 10.8187 85.2159 10.8074 85.3652 10.7773L85.7501 10.6998L85.3126 8.52855C85.3088 8.5094 85.3149 8.49024 85.3309 8.47107C85.3462 8.44806 85.3722 8.42887 85.409 8.4135C85.445 8.3943 85.4932 8.37661 85.5537 8.36043C85.6134 8.34043 85.6835 8.32233 85.7639 8.30613C85.8443 8.28992 85.914 8.27986 85.973 8.27595C86.035 8.26743 86.0864 8.26506 86.127 8.26884C86.1668 8.26878 86.1982 8.2764 86.2212 8.29168C86.2435 8.30314 86.2565 8.31845 86.2604 8.33759L86.6978 10.5088L87.0827 10.4313C87.232 10.4012 87.3607 10.3573 87.4686 10.2997C87.5765 10.2421 87.6691 10.1677 87.7464 10.0764C87.8267 9.98051 87.8916 9.86781 87.9412 9.73827C87.9939 9.60413 88.0362 9.44817 88.0681 9.2704L88.3099 7.97844C88.319 7.94472 88.3289 7.91483 88.3396 7.88877C88.3541 7.86193 88.3771 7.83739 88.4085 7.81513C88.4437 7.79209 88.4915 7.77249 88.552 7.75632C88.6156 7.73554 88.6991 7.71474 88.8024 7.69391C88.8944 7.67539 88.9698 7.66417 89.0288 7.66026C89.0908 7.65174 89.1383 7.65014 89.1713 7.65546C89.208 7.66 89.2341 7.67069 89.2494 7.68752C89.2679 7.69975 89.279 7.71544 89.2828 7.73459C89.2898 7.76905 89.2914 7.80659 89.2876 7.8472C89.2838 7.8878 89.2774 7.93493 89.2683 7.98856L89.0046 9.23114C88.9628 9.43881 88.9109 9.61661 88.8491 9.76455C88.7903 9.90789 88.7253 10.0306 88.6542 10.1325C88.5831 10.2345 88.5086 10.3193 88.4305 10.3868C88.3563 10.4536 88.2779 10.5092 88.1952 10.5538L88.1975 10.5653C88.337 10.585 88.4669 10.6166 88.5872 10.6601C88.7114 10.7028 88.8294 10.7647 88.9414 10.8457C89.0564 10.9222 89.1676 11.0193 89.2751 11.1371C89.3817 11.2511 89.4907 11.3866 89.602 11.5435L90.4276 12.7339C90.4445 12.7584 90.4591 12.7814 90.4714 12.8028C90.4875 12.8235 90.4998 12.8449 90.5082 12.8671C90.5159 12.8855 90.5232 12.9019 90.5301 12.9165C90.5363 12.9272 90.5405 12.9383 90.5428 12.9498ZM95.483 8.98977C95.5131 9.13911 95.4964 9.25405 95.4329 9.33458C95.3725 9.41051 95.2944 9.45812 95.1987 9.4774L91.8098 10.1602C91.8676 10.4474 91.9484 10.7001 92.0522 10.9183C92.1559 11.1365 92.2914 11.3144 92.4586 11.4521C92.6258 11.5897 92.8255 11.681 93.0576 11.7258C93.2898 11.7707 93.561 11.7619 93.8712 11.6994C94.1163 11.65 94.3307 11.5869 94.5144 11.51C94.6974 11.4293 94.8528 11.3502 94.9806 11.2726C95.1123 11.1943 95.2183 11.1271 95.2986 11.0711C95.3821 11.0105 95.4467 10.9755 95.4927 10.9662C95.5195 10.9608 95.544 10.9639 95.5663 10.9753C95.5915 10.9822 95.6126 10.9979 95.6295 11.0224C95.6464 11.0468 95.6618 11.0836 95.6756 11.1326C95.6926 11.177 95.708 11.2337 95.7218 11.3026C95.7319 11.3524 95.7388 11.3968 95.7427 11.4359C95.7458 11.4711 95.7467 11.5048 95.7452 11.537C95.7467 11.5646 95.7422 11.5914 95.7315 11.6175C95.7246 11.6427 95.712 11.6692 95.6937 11.6968C95.6784 11.7198 95.6241 11.7666 95.5307 11.8372C95.4366 11.904 95.3118 11.977 95.1564 12.0561C95.001 12.1352 94.8176 12.214 94.6063 12.2924C94.3996 12.3739 94.1737 12.4394 93.9286 12.4888C93.5036 12.5744 93.1182 12.5903 92.7727 12.5364C92.4309 12.4817 92.1274 12.3596 91.862 12.17C91.5967 11.9803 91.373 11.7206 91.191 11.3907C91.009 11.0607 90.8709 10.6622 90.7768 10.195C90.6873 9.75082 90.6645 9.341 90.7084 8.96556C90.7515 8.58629 90.8556 8.25251 91.0206 7.96423C91.1888 7.67135 91.4129 7.42895 91.693 7.23703C91.9723 7.04128 92.3015 6.90521 92.6806 6.82883C93.0865 6.74705 93.4443 6.74271 93.7539 6.81581C94.0673 6.88814 94.3383 7.01684 94.5669 7.2019C94.7947 7.38314 94.9808 7.61461 95.1252 7.89632C95.2727 8.17343 95.3804 8.48048 95.4483 8.81745L95.483 8.98977ZM94.4728 8.90043C94.384 8.40031 94.1942 8.0321 93.9035 7.79579C93.6167 7.55872 93.2454 7.48609 92.7897 7.5779C92.5561 7.62496 92.3601 7.71028 92.2017 7.83384C92.0433 7.95741 91.9194 8.10391 91.8301 8.27334C91.7407 8.44277 91.6831 8.63169 91.6573 8.8401C91.6308 9.04468 91.635 9.25305 91.6697 9.4652L94.4728 8.90043Z" fill="#7E5C45"/>
</svg>
