<svg width="34" height="34" viewBox="0 0 34 34" fill="none" xmlns="http://www.w3.org/2000/svg">
<path d="M5.47496 23.3112C4.25946 18.4492 3.65171 16.0197 4.92813 14.3848C6.20455 12.75 8.71063 12.75 13.7214 12.75H20.2805C25.2927 12.75 27.7974 12.75 29.0738 14.3848C30.3502 16.0197 29.7425 18.4507 28.527 23.3112C27.7535 26.4038 27.3681 27.9494 26.215 28.8504C25.0618 29.75 23.468 29.75 20.2805 29.75H13.7214C10.5339 29.75 8.94013 29.75 7.78696 28.8504C6.63379 27.9494 6.24705 26.4038 5.47496 23.3112Z" stroke="#7E5C45" stroke-width="1.5"/>
<path d="M27.625 13.4587L26.6192 9.76824C26.231 8.34449 26.0369 7.63333 25.6388 7.09641C25.2419 6.56298 24.7029 6.15206 24.0833 5.91066C23.46 5.66699 22.7233 5.66699 21.25 5.66699M6.375 13.4587L7.38083 9.76824C7.769 8.34449 7.96308 7.63333 8.36117 7.09641C8.75808 6.56298 9.29714 6.15206 9.91667 5.91066C10.54 5.66699 11.2767 5.66699 12.75 5.66699" stroke="#7E5C45" stroke-width="1.5"/>
<path d="M12.75 5.66667C12.75 5.29094 12.8993 4.93061 13.1649 4.66493C13.4306 4.39926 13.7909 4.25 14.1667 4.25H19.8333C20.2091 4.25 20.5694 4.39926 20.8351 4.66493C21.1007 4.93061 21.25 5.29094 21.25 5.66667C21.25 6.04239 21.1007 6.40272 20.8351 6.6684C20.5694 6.93408 20.2091 7.08333 19.8333 7.08333H14.1667C13.7909 7.08333 13.4306 6.93408 13.1649 6.6684C12.8993 6.40272 12.75 6.04239 12.75 5.66667Z" stroke="#7E5C45" stroke-width="1.5"/>
<path d="M6.375 25.5L17 12.75M27.625 25.5L17.7083 13.4583M6.375 14.1667L17 29.75L27.625 14.1667" stroke="#7E5C45" stroke-width="1.5" stroke-linecap="round" stroke-linejoin="round"/>
</svg>
