<svg width="28" height="29" viewBox="0 0 28 29" fill="none" xmlns="http://www.w3.org/2000/svg">
<path d="M8.16797 8.66699H7.0013C6.38246 8.66699 5.78897 8.91282 5.35139 9.35041C4.9138 9.78799 4.66797 10.3815 4.66797 11.0003V21.5003C4.66797 22.1192 4.9138 22.7127 5.35139 23.1502C5.78897 23.5878 6.38246 23.8337 7.0013 23.8337H17.5013C18.1201 23.8337 18.7136 23.5878 19.1512 23.1502C19.5888 22.7127 19.8346 22.1192 19.8346 21.5003V20.3337" stroke="#7E5C45" stroke-width="1.5" stroke-linecap="round" stroke-linejoin="round"/>
<path d="M18.6667 6.33346L22.1667 9.83346M23.7825 8.18263C24.242 7.72314 24.5001 7.09994 24.5001 6.45012C24.5001 5.80031 24.242 5.17711 23.7825 4.71762C23.323 4.25814 22.6998 4 22.05 4C21.4002 4 20.777 4.25814 20.3175 4.71762L10.5 14.5001V18.0001H14L23.7825 8.18263Z" stroke="#7E5C45" stroke-width="1.5" stroke-linecap="round" stroke-linejoin="round"/>
</svg>
