<svg width="152" height="44" viewBox="0 0 152 44" fill="none" xmlns="http://www.w3.org/2000/svg">
<path d="M38.647 16.7799C39.9045 14.1186 44.1954 9.19769 51.78 9.98956C54.6136 10.2854 59.6896 12.3473 59.2953 21.2768V27.422V28.8015V36.3263C59.0079 37.7895 57.2748 41.0168 52.6424 42.2208C46.8519 43.7257 43.2279 40.5309 42.4166 39.5871C41.5542 38.5838 39.7062 36.5772 39.7062 31.6861C39.9526 29.0524 41.2585 25.5659 45.0039 24.1613C48.7492 22.7566 52.4781 23.576 53.8744 24.1613C55.2297 24.6211 58.2111 26.193 59.2953 28.8015V27.422C58.4329 26.2515 55.7964 23.7098 52.1496 22.9071C49.3981 22.2383 43.7719 22.0292 39.4598 24.2867C37.8582 25.29 34.7535 27.6477 34.1621 32.0623C33.5707 36.4768 36.4619 40.0051 37.9814 41.2175C39.0902 42.0117 41.5542 42.9732 45.0039 43.4749C46.9751 43.6421 51.8046 43.9264 55.3529 43.2241C56.8313 42.9314 59.8621 42.0703 61.6362 39.9633C62.4575 39.169 64.1741 36.7528 64.4698 33.4418C64.8394 29.3032 64.7162 22.6563 64.4698 20.7751C64.2234 18.8939 64.3466 14.8807 59.6649 10.8674C57.858 9.61332 52.8642 7.48129 47.3447 8.98625C40.6643 10.8078 39.1818 15.5688 38.647 16.7799Z" fill="#7E5C45"/>
<path d="M76.4204 42.9732H72.478V8.92774H74.5724L99.7056 36.3263V17.3889C99.7056 15.4241 99.0403 10.9678 96.3792 8.86084H100.568V42.9732H99.7056L73.3404 14.2536L73.094 33.4418C73.094 34.1943 73.2418 36.2762 73.8332 38.5838C74.5724 41.4683 75.9276 42.597 76.4204 42.9732Z" fill="#7E5C45"/>
<path d="M144.674 8.61001V43.6003H149.849V8.61001H144.674Z" fill="#7E5C45"/>
<path d="M143.073 4.97302C142.58 5.09844 143.689 6.10174 145.66 6.10174H149.602C150.095 6.05994 151.081 5.85092 151.081 5.34926C151.081 4.84761 148.781 4.7222 147.631 4.7222C146.687 4.764 143.566 4.84761 143.073 4.97302Z" fill="#7E5C45"/>
<path d="M151.327 4.7222C151.861 4.68039 152.584 4.44629 151.204 3.84431C150.342 3.7607 148.395 3.59348 147.508 3.59348C146.399 3.59348 143.812 3.59348 142.826 3.84431C141.841 4.09513 142.826 4.59678 143.319 4.59678C143.812 4.59678 149.11 3.96972 151.327 4.7222Z" fill="#7E5C45"/>
<path d="M144.674 2.33935C143.972 2.39044 141.841 2.59017 143.319 3.46806C143.566 3.59348 144.336 3.52027 145.906 3.34265C148.124 3.09182 150.218 3.34265 151.081 3.34265C151.245 3.05002 151.13 2.48984 149.356 2.59017C148.863 2.59017 147.705 2.54001 147.015 2.33935C146.81 2.29754 146.054 2.23901 144.674 2.33935Z" fill="#7E5C45"/>
<path d="M143.073 2.33935C144.798 2.08852 145.389 1.68719 147.754 2.08852C150.711 2.59017 151.697 2.59017 151.697 1.9631C151.697 1.68267 150.588 1.46145 148.986 1.46145C147.385 1.46145 145.554 1.47042 144.182 1.58686C142.703 1.71228 141.841 2.28009 143.073 2.33935Z" fill="#7E5C45"/>
<path d="M143.319 1.46145C143.935 1.21228 145.488 0.788198 146.769 1.08521C147.919 1.16882 150.416 1.31095 151.204 1.21062C152.19 1.08521 149.972 0.0819026 148.986 0.0819026C148.001 0.0819026 145.29 -0.168924 144.428 0.207316C143.566 0.583556 142.334 1.21062 143.319 1.46145Z" fill="#7E5C45"/>
<path fill-rule="evenodd" clip-rule="evenodd" d="M109.069 42.9732V8.86084H120.28C123.443 8.77723 130.999 10.2905 135.927 17.0127C140.855 23.7349 138.309 31.1844 136.42 34.0689C135.147 36.5772 130.186 41.8696 120.527 42.9732H109.069ZM113.381 9.73873V42.0954H120.527C125.824 41.2175 131.122 38.2075 133.463 30.1811C135.336 23.7599 132.354 17.8906 130.629 15.7586C127.574 11.043 122.457 9.78053 120.28 9.73873H113.381Z" fill="#7E5C45"/>
<path fill-rule="evenodd" clip-rule="evenodd" d="M24.4291 16.8873C24.5112 14.9225 23.2464 10.5665 17.5298 8.86084C10.3841 6.72881 5.08638 9.61332 4.47037 9.98956C3.85436 10.3658 -0.211312 13.2503 0.404699 17.5144C0.897507 20.9256 2.82768 23.1161 3.73117 23.785C5.29173 24.9973 9.59559 27.6979 14.3266 28.8015C20.2403 30.1811 22.9507 34.1943 23.0739 34.696C23.0791 34.7169 23.0855 34.7418 23.0929 34.7705C23.2627 35.4274 23.9411 38.0511 21.2259 40.2142C20.1308 41.0865 18.7414 41.6779 17.3207 42.0753L16.9633 43.7733C18.7641 43.5691 20.4611 43.2052 21.4723 42.597C24.1827 40.9666 26.77 39.3363 27.5092 35.5739C28.2484 31.8115 25.9075 28.5507 24.1827 27.5474C23.9667 27.4218 23.7546 27.2902 23.5282 27.1499C21.9466 26.1691 19.6681 24.7562 10.5073 21.9038C2.12954 19.2952 3.8133 14.379 5.7024 12.247C6.40055 11.3273 8.88101 9.4879 13.2177 9.4879C18.6386 9.4879 21.9651 10.2404 24.4291 16.8873ZM4.63032 42.0873L5.07716 41.4505C4.26935 41.0795 3.54386 40.6738 2.74555 40.0887C0.281512 38.2828 0.0761748 35.323 0.281512 34.0689C-0.0470307 34.905 -0.359149 37.129 1.02072 39.3363C1.74359 40.4926 3.13016 41.3715 4.63032 42.0873Z" fill="#7E5C45"/>
<path d="M4.63032 42.0873C6.70969 43.0794 8.98081 43.7054 9.76807 43.8511C10.6177 44.0084 13.937 44.1164 16.9633 43.7733L17.3207 42.0753C15.065 42.7062 12.7304 42.8478 11.3697 42.8478C9.72684 42.8478 7.38609 42.511 5.07716 41.4505L4.63032 42.0873Z" fill="#7E5C45"/>
</svg>
