<svg width="28" height="29" viewBox="0 0 28 29" fill="none" xmlns="http://www.w3.org/2000/svg">
<path d="M18.6667 5.16692H22.1667C22.7855 5.16692 23.379 5.41275 23.8166 5.85034C24.2542 6.28792 24.5 6.88142 24.5 7.50025V8.66692M18.6667 23.8336H22.1667C22.7855 23.8336 23.379 23.5878 23.8166 23.1502C24.2542 22.7126 24.5 22.1191 24.5 21.5003V20.3336M18.6678 14.5003H24.5012M24.5012 14.5003L22.1678 12.1669M24.5012 14.5003L22.1678 16.8336M5.1625 23.1663L12.1625 25.2663C12.511 25.3709 12.8791 25.3925 13.2374 25.3295C13.5957 25.2665 13.9343 25.1206 14.2262 24.9034C14.5181 24.6862 14.7552 24.4038 14.9185 24.0787C15.0817 23.7535 15.1667 23.3947 15.1667 23.0309V5.96959C15.1667 5.60576 15.0817 5.24696 14.9185 4.92184C14.7552 4.59672 14.5181 4.31429 14.2262 4.0971C13.9343 3.87991 13.5957 3.73399 13.2374 3.67099C12.8791 3.60799 12.511 3.62966 12.1625 3.73425L5.1625 5.83425C4.68186 5.97853 4.26053 6.27392 3.96105 6.67659C3.66157 7.07926 3.49989 7.56776 3.5 8.06959V20.9309C3.49989 21.4328 3.66157 21.9212 3.96105 22.3239C4.26053 22.7266 4.68186 23.022 5.1625 23.1663Z" stroke="#7E5C45" stroke-width="1.5" stroke-linecap="round" stroke-linejoin="round"/>
</svg>
