<svg width="861" height="344" viewBox="0 0 861 344" fill="none" xmlns="http://www.w3.org/2000/svg">
<path d="M103.669 49.3839C135.652 58.7582 142.729 82.6995 142.269 93.4984C128.483 56.9661 109.873 52.8304 79.5439 52.8304C55.281 52.8304 41.4033 62.9399 37.4974 67.9947C26.9283 79.7126 17.508 106.733 64.3796 121.07C122.969 138.991 131.241 146.574 140.891 152.088C150.541 157.602 163.637 175.524 159.501 196.202C155.366 216.881 140.891 225.842 125.726 234.802C110.562 243.763 67.8261 243.074 60.2439 241.695C52.6617 240.317 20.9545 232.045 11.3044 216.881C3.5844 204.749 5.33062 192.526 7.16874 187.931C6.01993 194.824 7.16875 211.091 20.9545 221.017C38.1867 233.424 56.7975 236.181 69.2047 236.181C81.6118 236.181 108.494 234.113 124.348 221.706C140.201 209.299 135.376 194.134 134.687 191.377C133.998 188.62 118.833 166.563 85.7476 158.981C59.2789 152.915 35.1998 138.072 26.4688 131.409C21.414 127.733 10.6151 115.693 7.85795 96.9448C4.41151 73.509 27.158 57.6554 30.6045 55.5875C34.0509 53.5196 63.6903 37.666 103.669 49.3839Z" fill="#7A774C"/>
<path d="M221.815 92.9081C228.85 78.2812 252.857 51.2353 295.291 55.5875C311.145 57.2135 339.543 68.5461 337.338 117.623V151.399V158.981V200.338C335.729 208.38 326.033 226.117 300.116 232.735C267.72 241.006 247.444 223.447 242.905 218.259C238.08 212.745 227.741 201.717 227.741 174.834C229.119 160.359 236.426 141.197 257.38 133.477C278.335 125.757 299.197 130.26 307.009 133.477C314.591 136.004 331.272 144.644 337.338 158.981V151.399C332.513 144.965 317.762 130.996 297.359 126.584C281.965 122.908 250.487 121.759 226.362 134.166C217.402 139.681 200.031 152.639 196.723 176.902C193.414 201.165 209.59 220.557 218.091 227.22C224.294 231.586 238.08 236.87 257.38 239.627C268.409 240.546 295.429 242.109 315.28 238.249C323.552 236.64 340.508 231.907 350.434 220.327C355.029 215.962 364.633 202.682 366.288 184.484C368.356 161.738 367.666 125.206 366.288 114.866C364.909 104.527 365.598 82.4697 339.406 60.4125C329.296 53.5196 301.357 41.8018 270.477 50.0732C233.101 60.0845 224.807 86.2518 221.815 92.9081Z" fill="#7A774C"/>
<path d="M433.149 236.87H411.091V49.7516H422.809L563.424 200.338V96.2555C563.424 85.4567 559.702 60.964 544.813 49.3839H568.249V236.87H563.424L415.916 79.0233L414.538 184.484C414.538 188.62 415.365 200.062 418.674 212.745C422.809 228.599 430.392 234.802 433.149 236.87Z" fill="#7A774C"/>
<path d="M815.014 48.0053V240.317H843.964V48.0053H815.014Z" fill="#7A774C"/>
<path d="M806.053 28.016C803.296 28.7053 809.5 34.2196 820.529 34.2196H842.586C845.343 33.9898 850.857 32.841 850.857 30.0839C850.857 27.3267 837.99 26.6374 831.557 26.6374C826.273 26.8672 808.811 27.3267 806.053 28.016Z" fill="#7A774C"/>
<path d="M852.236 26.6374C855.223 26.4077 859.266 25.121 851.546 21.8124C846.721 21.3529 835.831 20.4338 830.868 20.4338C824.664 20.4338 810.189 20.4338 804.675 21.8124C799.161 23.191 804.675 25.9481 807.432 25.9481C810.189 25.9481 839.829 22.5017 852.236 26.6374Z" fill="#7A774C"/>
<path d="M815.014 13.5409C811.082 13.8218 799.161 14.9195 807.432 19.7445C808.811 20.4338 813.121 20.0315 821.907 19.0552C834.314 17.6767 846.032 19.0552 850.857 19.0552C851.776 17.4469 851.133 14.3681 841.207 14.9195C838.45 14.9195 831.971 14.6438 828.111 13.5409C826.962 13.3112 822.734 12.9895 815.014 13.5409Z" fill="#7A774C"/>
<path d="M806.053 13.5409C815.703 12.1624 819.012 9.95664 832.246 12.1624C848.789 14.9195 854.304 14.9195 854.304 11.4731C854.304 9.93177 848.1 8.71591 839.139 8.71591C830.179 8.71591 819.937 8.76521 812.257 9.4052C803.986 10.0945 799.161 13.2153 806.053 13.5409Z" fill="#7A774C"/>
<path d="M807.432 8.71591C810.878 7.34645 819.563 5.01563 826.732 6.64805C833.165 7.10757 847.135 7.88876 851.546 7.33733C857.061 6.64804 844.654 1.13374 839.139 1.13374C833.625 1.13374 818.461 -0.244835 813.636 1.82303C808.811 3.89089 801.918 7.33733 807.432 8.71591Z" fill="#7A774C"/>
<path fill-rule="evenodd" clip-rule="evenodd" d="M615.81 236.87V49.3839H678.535C696.227 48.9244 738.503 57.2418 766.075 94.1876C793.646 131.133 779.401 172.077 768.832 187.931C761.709 201.717 733.954 230.805 679.914 236.87H615.81ZM639.935 54.2089V232.045H679.914C709.553 227.22 739.193 210.677 752.289 166.563C762.766 131.271 746.085 99.0126 736.435 87.2948C719.341 61.3775 690.713 54.4387 678.535 54.2089H639.935Z" fill="#7A774C"/>
<path d="M176.832 318.073C176.832 318.271 176.783 318.444 176.684 318.593C176.585 318.716 176.424 318.828 176.201 318.927C175.979 319.026 175.669 319.1 175.274 319.149C174.878 319.199 174.383 319.224 173.789 319.224C173.171 319.224 172.664 319.199 172.268 319.149C171.872 319.1 171.55 319.026 171.303 318.927C171.08 318.828 170.919 318.716 170.82 318.593C170.722 318.444 170.672 318.271 170.672 318.073V297.774C170.672 296.364 170.548 295.078 170.301 293.915C170.054 292.752 169.658 291.75 169.113 290.909C168.569 290.068 167.876 289.425 167.035 288.979C166.194 288.534 165.205 288.312 164.067 288.312C162.656 288.312 161.234 288.856 159.799 289.944C158.389 291.033 156.83 292.629 155.123 294.731V318.073C155.123 318.271 155.074 318.444 154.975 318.593C154.876 318.716 154.703 318.828 154.455 318.927C154.233 319.026 153.923 319.1 153.527 319.149C153.132 319.199 152.637 319.224 152.043 319.224C151.474 319.224 150.979 319.199 150.559 319.149C150.163 319.1 149.841 319.026 149.594 318.927C149.371 318.828 149.21 318.716 149.111 318.593C149.037 318.444 149 318.271 149 318.073V297.774C149 296.364 148.864 295.078 148.592 293.915C148.32 292.752 147.912 291.75 147.367 290.909C146.823 290.068 146.13 289.425 145.289 288.979C144.473 288.534 143.496 288.312 142.358 288.312C140.947 288.312 139.525 288.856 138.09 289.944C136.655 291.033 135.097 292.629 133.414 294.731V318.073C133.414 318.271 133.365 318.444 133.266 318.593C133.167 318.716 133.006 318.828 132.783 318.927C132.561 319.026 132.251 319.1 131.856 319.149C131.46 319.199 130.953 319.224 130.334 319.224C129.74 319.224 129.246 319.199 128.85 319.149C128.454 319.1 128.132 319.026 127.885 318.927C127.662 318.828 127.501 318.716 127.402 318.593C127.328 318.444 127.291 318.271 127.291 318.073V284.675C127.291 284.477 127.328 284.316 127.402 284.192C127.477 284.044 127.625 283.92 127.848 283.821C128.07 283.698 128.355 283.623 128.701 283.599C129.048 283.549 129.505 283.524 130.074 283.524C130.619 283.524 131.064 283.549 131.41 283.599C131.781 283.623 132.066 283.698 132.264 283.821C132.462 283.92 132.598 284.044 132.672 284.192C132.771 284.316 132.82 284.477 132.82 284.675V289.091C134.701 286.988 136.519 285.454 138.276 284.489C140.057 283.5 141.85 283.005 143.656 283.005C145.042 283.005 146.279 283.166 147.367 283.487C148.481 283.809 149.458 284.267 150.299 284.86C151.14 285.429 151.858 286.122 152.451 286.938C153.045 287.73 153.54 288.621 153.936 289.61C155.049 288.398 156.1 287.371 157.09 286.53C158.104 285.689 159.069 285.009 159.985 284.489C160.925 283.97 161.828 283.599 162.694 283.376C163.584 283.129 164.475 283.005 165.365 283.005C167.518 283.005 169.324 283.388 170.783 284.155C172.243 284.897 173.418 285.899 174.309 287.161C175.224 288.423 175.867 289.907 176.238 291.614C176.634 293.297 176.832 295.078 176.832 296.958V318.073ZM214.682 318.11C214.682 318.407 214.583 318.63 214.385 318.778C214.187 318.927 213.915 319.038 213.569 319.112C213.223 319.187 212.715 319.224 212.048 319.224C211.404 319.224 210.885 319.187 210.489 319.112C210.118 319.038 209.846 318.927 209.673 318.778C209.499 318.63 209.413 318.407 209.413 318.11V314.771C207.953 316.329 206.32 317.541 204.514 318.407C202.733 319.273 200.84 319.706 198.837 319.706C197.08 319.706 195.484 319.471 194.049 319.001C192.639 318.556 191.427 317.9 190.413 317.034C189.423 316.168 188.644 315.104 188.075 313.843C187.531 312.581 187.258 311.146 187.258 309.538C187.258 307.658 187.642 306.025 188.409 304.64C189.176 303.254 190.277 302.104 191.712 301.188C193.146 300.273 194.903 299.593 196.981 299.147C199.059 298.677 201.397 298.442 203.995 298.442H208.596V295.845C208.596 294.558 208.46 293.42 208.188 292.431C207.916 291.441 207.471 290.625 206.852 289.981C206.258 289.313 205.479 288.819 204.514 288.497C203.549 288.151 202.362 287.978 200.952 287.978C199.443 287.978 198.082 288.163 196.87 288.534C195.682 288.881 194.631 289.276 193.715 289.722C192.825 290.142 192.07 290.538 191.452 290.909C190.858 291.256 190.413 291.429 190.116 291.429C189.918 291.429 189.745 291.379 189.596 291.28C189.448 291.181 189.312 291.033 189.188 290.835C189.089 290.637 189.015 290.39 188.965 290.093C188.916 289.771 188.891 289.425 188.891 289.054C188.891 288.435 188.928 287.953 189.003 287.606C189.102 287.235 189.312 286.889 189.633 286.567C189.98 286.246 190.561 285.875 191.378 285.454C192.194 285.009 193.134 284.613 194.198 284.267C195.262 283.896 196.424 283.599 197.686 283.376C198.948 283.129 200.222 283.005 201.508 283.005C203.908 283.005 205.949 283.277 207.631 283.821C209.314 284.366 210.674 285.17 211.714 286.233C212.753 287.272 213.507 288.571 213.977 290.13C214.447 291.688 214.682 293.507 214.682 295.585V318.11ZM208.596 302.858H203.364C201.682 302.858 200.222 303.007 198.985 303.304C197.748 303.576 196.721 303.996 195.905 304.565C195.089 305.11 194.482 305.778 194.087 306.569C193.715 307.336 193.53 308.227 193.53 309.241C193.53 310.973 194.074 312.358 195.163 313.397C196.276 314.412 197.822 314.919 199.801 314.919C201.409 314.919 202.894 314.511 204.255 313.694C205.64 312.878 207.087 311.629 208.596 309.946V302.858ZM251.493 312.989C251.493 313.41 251.481 313.781 251.456 314.103C251.431 314.399 251.382 314.659 251.308 314.882C251.258 315.08 251.184 315.265 251.085 315.438C251.011 315.587 250.813 315.822 250.491 316.144C250.194 316.44 249.675 316.824 248.933 317.294C248.191 317.739 247.349 318.147 246.409 318.519C245.494 318.865 244.492 319.149 243.403 319.372C242.315 319.595 241.189 319.706 240.026 319.706C237.627 319.706 235.499 319.31 233.644 318.519C231.788 317.727 230.23 316.576 228.968 315.067C227.731 313.534 226.778 311.666 226.11 309.464C225.467 307.237 225.146 304.677 225.146 301.782C225.146 298.492 225.541 295.672 226.333 293.321C227.15 290.946 228.25 289.004 229.636 287.495C231.046 285.986 232.691 284.873 234.571 284.155C236.476 283.413 238.53 283.042 240.732 283.042C241.795 283.042 242.822 283.141 243.812 283.339C244.826 283.537 245.754 283.797 246.595 284.118C247.436 284.44 248.178 284.811 248.821 285.231C249.489 285.652 249.972 286.011 250.269 286.308C250.566 286.604 250.763 286.84 250.862 287.013C250.986 287.186 251.085 287.396 251.159 287.644C251.234 287.866 251.283 288.126 251.308 288.423C251.332 288.72 251.345 289.091 251.345 289.536C251.345 290.501 251.234 291.181 251.011 291.577C250.788 291.948 250.516 292.134 250.194 292.134C249.823 292.134 249.39 291.936 248.896 291.54C248.426 291.119 247.819 290.662 247.077 290.167C246.335 289.672 245.432 289.227 244.368 288.831C243.329 288.41 242.092 288.2 240.657 288.2C237.713 288.2 235.45 289.338 233.866 291.614C232.308 293.866 231.528 297.144 231.528 301.448C231.528 303.601 231.726 305.493 232.122 307.126C232.543 308.734 233.149 310.082 233.941 311.171C234.732 312.259 235.697 313.076 236.835 313.62C237.998 314.14 239.321 314.399 240.806 314.399C242.216 314.399 243.453 314.177 244.517 313.731C245.581 313.286 246.496 312.804 247.263 312.284C248.054 311.74 248.71 311.257 249.23 310.837C249.774 310.392 250.194 310.169 250.491 310.169C250.665 310.169 250.813 310.218 250.937 310.317C251.06 310.416 251.159 310.59 251.234 310.837C251.332 311.06 251.394 311.356 251.419 311.728C251.469 312.074 251.493 312.494 251.493 312.989ZM285.632 318.11C285.632 318.407 285.533 318.63 285.336 318.778C285.138 318.927 284.865 319.038 284.519 319.112C284.173 319.187 283.666 319.224 282.998 319.224C282.354 319.224 281.835 319.187 281.439 319.112C281.068 319.038 280.796 318.927 280.623 318.778C280.449 318.63 280.363 318.407 280.363 318.11V314.771C278.903 316.329 277.27 317.541 275.464 318.407C273.683 319.273 271.791 319.706 269.787 319.706C268.03 319.706 266.434 319.471 265 319.001C263.589 318.556 262.377 317.9 261.363 317.034C260.373 316.168 259.594 315.104 259.025 313.843C258.481 312.581 258.209 311.146 258.209 309.538C258.209 307.658 258.592 306.025 259.359 304.64C260.126 303.254 261.227 302.104 262.662 301.188C264.097 300.273 265.853 299.593 267.931 299.147C270.009 298.677 272.347 298.442 274.945 298.442H279.546V295.845C279.546 294.558 279.41 293.42 279.138 292.431C278.866 291.441 278.421 290.625 277.802 289.981C277.209 289.313 276.429 288.819 275.464 288.497C274.5 288.151 273.312 287.978 271.902 287.978C270.393 287.978 269.032 288.163 267.82 288.534C266.632 288.881 265.581 289.276 264.666 289.722C263.775 290.142 263.02 290.538 262.402 290.909C261.808 291.256 261.363 291.429 261.066 291.429C260.868 291.429 260.695 291.379 260.546 291.28C260.398 291.181 260.262 291.033 260.138 290.835C260.039 290.637 259.965 290.39 259.916 290.093C259.866 289.771 259.841 289.425 259.841 289.054C259.841 288.435 259.879 287.953 259.953 287.606C260.052 287.235 260.262 286.889 260.584 286.567C260.93 286.246 261.511 285.875 262.328 285.454C263.144 285.009 264.084 284.613 265.148 284.267C266.212 283.896 267.375 283.599 268.636 283.376C269.898 283.129 271.172 283.005 272.459 283.005C274.858 283.005 276.899 283.277 278.582 283.821C280.264 284.366 281.625 285.17 282.664 286.233C283.703 287.272 284.457 288.571 284.927 290.13C285.397 291.688 285.632 293.507 285.632 295.585V318.11ZM279.546 302.858H274.314C272.632 302.858 271.172 303.007 269.935 303.304C268.698 303.576 267.671 303.996 266.855 304.565C266.039 305.11 265.433 305.778 265.037 306.569C264.666 307.336 264.48 308.227 264.48 309.241C264.48 310.973 265.024 312.358 266.113 313.397C267.226 314.412 268.772 314.919 270.752 314.919C272.36 314.919 273.844 314.511 275.205 313.694C276.59 312.878 278.037 311.629 279.546 309.946V302.858ZM317.953 286.864C317.953 287.409 317.941 287.866 317.916 288.237C317.891 288.608 317.842 288.905 317.768 289.128C317.693 289.326 317.594 289.487 317.471 289.61C317.372 289.709 317.223 289.759 317.025 289.759C316.828 289.759 316.58 289.709 316.283 289.61C316.011 289.487 315.69 289.375 315.318 289.276C314.972 289.153 314.576 289.041 314.131 288.942C313.686 288.843 313.203 288.794 312.684 288.794C312.065 288.794 311.459 288.918 310.865 289.165C310.272 289.412 309.641 289.821 308.973 290.39C308.329 290.959 307.649 291.713 306.932 292.653C306.214 293.593 305.423 294.744 304.557 296.104V318.073C304.557 318.271 304.507 318.444 304.408 318.593C304.309 318.716 304.148 318.828 303.926 318.927C303.703 319.026 303.394 319.1 302.998 319.149C302.602 319.199 302.095 319.224 301.477 319.224C300.883 319.224 300.388 319.199 299.992 319.149C299.596 319.1 299.275 319.026 299.027 318.927C298.805 318.828 298.644 318.716 298.545 318.593C298.471 318.444 298.434 318.271 298.434 318.073V284.675C298.434 284.477 298.471 284.316 298.545 284.192C298.619 284.044 298.768 283.92 298.99 283.821C299.213 283.698 299.497 283.623 299.844 283.599C300.19 283.549 300.648 283.524 301.217 283.524C301.761 283.524 302.206 283.549 302.553 283.599C302.924 283.623 303.208 283.698 303.406 283.821C303.604 283.92 303.74 284.044 303.815 284.192C303.913 284.316 303.963 284.477 303.963 284.675V289.536C304.878 288.2 305.732 287.112 306.523 286.271C307.34 285.429 308.107 284.774 308.824 284.304C309.542 283.809 310.247 283.475 310.94 283.302C311.657 283.104 312.374 283.005 313.092 283.005C313.413 283.005 313.772 283.03 314.168 283.079C314.589 283.104 315.022 283.166 315.467 283.265C315.912 283.364 316.308 283.475 316.654 283.599C317.025 283.722 317.285 283.846 317.434 283.97C317.582 284.093 317.681 284.217 317.731 284.341C317.78 284.44 317.817 284.576 317.842 284.749C317.891 284.922 317.916 285.182 317.916 285.528C317.941 285.85 317.953 286.295 317.953 286.864ZM356.249 301.003C356.249 303.724 355.89 306.235 355.172 308.536C354.455 310.812 353.379 312.779 351.944 314.437C350.534 316.094 348.753 317.393 346.6 318.333C344.473 319.248 341.999 319.706 339.178 319.706C336.432 319.706 334.032 319.298 331.979 318.481C329.95 317.665 328.256 316.478 326.895 314.919C325.534 313.36 324.52 311.468 323.852 309.241C323.184 307.015 322.85 304.491 322.85 301.671C322.85 298.95 323.197 296.451 323.889 294.175C324.607 291.874 325.67 289.895 327.081 288.237C328.516 286.58 330.297 285.293 332.424 284.378C334.552 283.463 337.038 283.005 339.883 283.005C342.629 283.005 345.017 283.413 347.045 284.229C349.099 285.046 350.806 286.233 352.167 287.792C353.527 289.351 354.542 291.243 355.21 293.47C355.902 295.696 356.249 298.207 356.249 301.003ZM349.792 301.411C349.792 299.605 349.618 297.898 349.272 296.29C348.95 294.682 348.406 293.272 347.639 292.06C346.872 290.847 345.833 289.895 344.522 289.202C343.211 288.485 341.578 288.126 339.624 288.126C337.818 288.126 336.259 288.448 334.948 289.091C333.661 289.734 332.598 290.649 331.756 291.837C330.915 293 330.284 294.385 329.864 295.993C329.468 297.601 329.27 299.358 329.27 301.263C329.27 303.093 329.431 304.813 329.753 306.421C330.099 308.029 330.655 309.439 331.422 310.651C332.214 311.839 333.266 312.791 334.577 313.509C335.888 314.201 337.521 314.548 339.475 314.548C341.256 314.548 342.803 314.226 344.114 313.583C345.425 312.94 346.501 312.037 347.342 310.874C348.183 309.711 348.802 308.326 349.198 306.718C349.594 305.11 349.792 303.341 349.792 301.411ZM395.546 318.073C395.546 318.271 395.496 318.444 395.397 318.593C395.299 318.716 395.138 318.828 394.915 318.927C394.692 319.026 394.383 319.1 393.987 319.149C393.592 319.199 393.097 319.224 392.503 319.224C391.884 319.224 391.377 319.199 390.981 319.149C390.586 319.1 390.276 319.026 390.054 318.927C389.831 318.828 389.67 318.716 389.571 318.593C389.472 318.444 389.423 318.271 389.423 318.073V298.517C389.423 296.612 389.274 295.078 388.978 293.915C388.681 292.752 388.248 291.75 387.679 290.909C387.11 290.068 386.368 289.425 385.452 288.979C384.562 288.534 383.522 288.312 382.335 288.312C380.801 288.312 379.267 288.856 377.733 289.944C376.2 291.033 374.592 292.629 372.909 294.731V318.073C372.909 318.271 372.86 318.444 372.761 318.593C372.662 318.716 372.501 318.828 372.278 318.927C372.056 319.026 371.746 319.1 371.351 319.149C370.955 319.199 370.448 319.224 369.829 319.224C369.235 319.224 368.741 319.199 368.345 319.149C367.949 319.1 367.627 319.026 367.38 318.927C367.157 318.828 366.996 318.716 366.897 318.593C366.823 318.444 366.786 318.271 366.786 318.073V284.675C366.786 284.477 366.823 284.316 366.897 284.192C366.972 284.044 367.12 283.92 367.343 283.821C367.565 283.698 367.85 283.623 368.196 283.599C368.543 283.549 369 283.524 369.569 283.524C370.114 283.524 370.559 283.549 370.905 283.599C371.276 283.623 371.561 283.698 371.759 283.821C371.957 283.92 372.093 284.044 372.167 284.192C372.266 284.316 372.315 284.477 372.315 284.675V289.091C374.196 286.988 376.064 285.454 377.919 284.489C379.799 283.5 381.692 283.005 383.597 283.005C385.823 283.005 387.691 283.388 389.2 284.155C390.734 284.897 391.971 285.899 392.911 287.161C393.851 288.423 394.519 289.907 394.915 291.614C395.336 293.297 395.546 295.325 395.546 297.7V318.073ZM429.203 308.981C429.203 310.688 428.881 312.21 428.238 313.546C427.619 314.882 426.729 316.007 425.566 316.923C424.403 317.838 423.018 318.531 421.41 319.001C419.802 319.471 418.033 319.706 416.103 319.706C414.916 319.706 413.778 319.607 412.689 319.409C411.625 319.236 410.66 319.013 409.794 318.741C408.953 318.444 408.236 318.147 407.642 317.851C407.048 317.529 406.615 317.244 406.343 316.997C406.071 316.75 405.873 316.403 405.75 315.958C405.626 315.513 405.564 314.907 405.564 314.14C405.564 313.67 405.589 313.274 405.638 312.952C405.688 312.631 405.75 312.371 405.824 312.173C405.898 311.975 405.997 311.839 406.121 311.765C406.269 311.666 406.43 311.616 406.603 311.616C406.875 311.616 407.271 311.789 407.791 312.136C408.335 312.457 408.99 312.816 409.757 313.212C410.549 313.608 411.477 313.979 412.541 314.325C413.604 314.647 414.829 314.808 416.214 314.808C417.253 314.808 418.194 314.696 419.035 314.474C419.876 314.251 420.606 313.929 421.224 313.509C421.843 313.063 422.313 312.507 422.634 311.839C422.981 311.171 423.154 310.379 423.154 309.464C423.154 308.524 422.906 307.732 422.412 307.089C421.942 306.446 421.311 305.877 420.519 305.382C419.727 304.887 418.837 304.454 417.847 304.083C416.858 303.687 415.831 303.279 414.767 302.858C413.728 302.438 412.701 301.968 411.687 301.448C410.697 300.904 409.807 300.248 409.015 299.481C408.224 298.715 407.58 297.799 407.085 296.735C406.615 295.672 406.38 294.397 406.38 292.913C406.38 291.602 406.628 290.353 407.123 289.165C407.642 287.953 408.409 286.901 409.423 286.011C410.438 285.095 411.699 284.366 413.209 283.821C414.742 283.277 416.524 283.005 418.552 283.005C419.443 283.005 420.334 283.079 421.224 283.228C422.115 283.376 422.919 283.562 423.636 283.784C424.354 284.007 424.96 284.254 425.455 284.526C425.974 284.774 426.358 284.996 426.605 285.194C426.877 285.392 427.05 285.565 427.125 285.714C427.224 285.862 427.285 286.035 427.31 286.233C427.36 286.407 427.397 286.629 427.421 286.901C427.471 287.174 427.496 287.507 427.496 287.903C427.496 288.324 427.471 288.695 427.421 289.017C427.397 289.313 427.335 289.561 427.236 289.759C427.162 289.957 427.063 290.105 426.939 290.204C426.815 290.278 426.679 290.315 426.531 290.315C426.308 290.315 425.987 290.179 425.566 289.907C425.145 289.635 424.601 289.351 423.933 289.054C423.265 288.732 422.474 288.435 421.558 288.163C420.668 287.891 419.641 287.755 418.478 287.755C417.439 287.755 416.524 287.879 415.732 288.126C414.94 288.349 414.285 288.683 413.765 289.128C413.27 289.549 412.887 290.056 412.615 290.649C412.367 291.243 412.244 291.886 412.244 292.579C412.244 293.544 412.491 294.36 412.986 295.028C413.481 295.672 414.124 296.241 414.916 296.735C415.707 297.23 416.61 297.675 417.625 298.071C418.639 298.467 419.666 298.875 420.705 299.296C421.768 299.716 422.807 300.187 423.822 300.706C424.861 301.226 425.776 301.856 426.568 302.599C427.36 303.341 427.99 304.231 428.46 305.271C428.955 306.31 429.203 307.547 429.203 308.981ZM456.586 306.347C456.586 304.986 456.772 303.7 457.143 302.487C457.514 301.25 458.096 300.063 458.887 298.925C459.679 297.762 460.706 296.649 461.967 295.585C463.254 294.496 464.8 293.408 466.606 292.319C465.616 290.983 464.763 289.771 464.045 288.683C463.353 287.594 462.771 286.58 462.301 285.64C461.856 284.7 461.534 283.809 461.336 282.968C461.138 282.102 461.04 281.236 461.04 280.37C461.04 278.836 461.299 277.377 461.819 275.991C462.338 274.581 463.167 273.344 464.305 272.28C465.468 271.192 466.952 270.338 468.758 269.72C470.564 269.076 472.754 268.755 475.327 268.755C477.504 268.755 479.384 268.99 480.967 269.46C482.575 269.93 483.899 270.598 484.938 271.464C486.002 272.33 486.793 273.381 487.313 274.618C487.857 275.83 488.129 277.191 488.129 278.7C488.129 280.16 487.894 281.496 487.424 282.708C486.954 283.92 486.2 285.095 485.161 286.233C484.122 287.371 482.786 288.509 481.153 289.647C479.545 290.761 477.59 291.936 475.29 293.173C476.131 294.187 477.046 295.251 478.036 296.364C479.025 297.453 480.052 298.554 481.116 299.667C482.204 300.78 483.305 301.881 484.418 302.97C485.556 304.034 486.67 305.06 487.758 306.05C488.253 305.382 488.698 304.627 489.094 303.786C489.49 302.92 489.836 302.017 490.133 301.077C490.43 300.112 490.653 299.135 490.801 298.146C490.95 297.156 491.024 296.154 491.024 295.14V293.804C491.024 293.556 491.061 293.358 491.135 293.21C491.234 293.037 491.383 292.901 491.581 292.802C491.778 292.678 492.063 292.591 492.434 292.542C492.83 292.493 493.337 292.468 493.956 292.468C494.5 292.468 494.957 292.48 495.329 292.505C495.724 292.53 496.046 292.591 496.293 292.69C496.541 292.765 496.714 292.901 496.813 293.099C496.937 293.272 496.999 293.519 496.999 293.841V294.769C496.999 296.154 496.875 297.515 496.627 298.851C496.405 300.187 496.083 301.498 495.663 302.784C495.267 304.046 494.76 305.258 494.141 306.421C493.547 307.584 492.879 308.66 492.137 309.649C493.25 310.54 494.215 311.282 495.032 311.876C495.873 312.47 496.578 312.952 497.147 313.323C497.741 313.694 498.223 313.954 498.594 314.103C498.99 314.251 499.312 314.325 499.559 314.325C499.806 314.325 500.041 314.313 500.264 314.288C500.487 314.263 500.66 314.3 500.784 314.399C500.932 314.498 501.043 314.696 501.118 314.993C501.192 315.29 501.229 315.748 501.229 316.366C501.229 316.985 501.217 317.479 501.192 317.851C501.167 318.222 501.118 318.506 501.043 318.704C500.994 318.877 500.895 319.026 500.747 319.149C500.598 319.273 500.326 319.384 499.93 319.483C499.534 319.582 499.015 319.632 498.372 319.632C497.877 319.632 497.332 319.545 496.739 319.372C496.145 319.199 495.452 318.902 494.661 318.481C493.869 318.036 492.941 317.442 491.877 316.7C490.838 315.958 489.614 315.018 488.204 313.88C487.165 314.721 486.064 315.5 484.901 316.218C483.763 316.935 482.538 317.554 481.227 318.073C479.941 318.568 478.58 318.951 477.145 319.224C475.735 319.521 474.201 319.669 472.543 319.669C470.985 319.669 469.5 319.533 468.09 319.261C466.705 318.989 465.418 318.605 464.231 318.11C463.043 317.591 461.98 316.948 461.04 316.181C460.099 315.414 459.295 314.548 458.627 313.583C457.984 312.593 457.477 311.493 457.106 310.28C456.76 309.068 456.586 307.757 456.586 306.347ZM467.534 279.888C467.534 280.556 467.62 281.236 467.793 281.929C467.991 282.621 468.276 283.351 468.647 284.118C469.043 284.86 469.513 285.664 470.057 286.53C470.626 287.396 471.294 288.361 472.061 289.425C473.867 288.41 475.376 287.483 476.588 286.642C477.825 285.776 478.815 284.947 479.557 284.155C480.299 283.364 480.831 282.572 481.153 281.78C481.499 280.989 481.672 280.147 481.672 279.257C481.672 278.539 481.536 277.859 481.264 277.216C481.017 276.548 480.609 275.966 480.04 275.472C479.471 274.952 478.753 274.544 477.887 274.247C477.021 273.95 475.982 273.802 474.77 273.802C473.459 273.802 472.346 273.975 471.43 274.321C470.54 274.643 469.797 275.088 469.204 275.657C468.635 276.201 468.214 276.845 467.942 277.587C467.67 278.329 467.534 279.096 467.534 279.888ZM463.229 305.716C463.229 307.002 463.439 308.177 463.86 309.241C464.305 310.305 464.948 311.233 465.79 312.024C466.631 312.791 467.682 313.397 468.944 313.843C470.206 314.263 471.665 314.474 473.323 314.474C474.337 314.474 475.327 314.375 476.291 314.177C477.256 313.954 478.172 313.67 479.038 313.323C479.928 312.952 480.769 312.519 481.561 312.024C482.353 311.505 483.082 310.961 483.75 310.392C482.464 309.278 481.178 308.128 479.891 306.94C478.629 305.728 477.405 304.516 476.217 303.304C475.03 302.091 473.879 300.892 472.766 299.704C471.678 298.492 470.676 297.317 469.76 296.179C468.523 296.97 467.484 297.762 466.643 298.554C465.827 299.321 465.159 300.1 464.639 300.892C464.144 301.659 463.786 302.438 463.563 303.229C463.34 304.021 463.229 304.85 463.229 305.716ZM547.761 315.624C547.761 316.341 547.712 316.91 547.613 317.331C547.514 317.752 547.365 318.061 547.167 318.259C546.97 318.457 546.673 318.642 546.277 318.815C545.881 318.989 545.423 319.125 544.904 319.224C544.409 319.347 543.877 319.446 543.308 319.521C542.739 319.595 542.17 319.632 541.601 319.632C539.869 319.632 538.385 319.409 537.148 318.964C535.911 318.494 534.897 317.801 534.105 316.886C533.313 315.946 532.732 314.771 532.361 313.36C532.014 311.925 531.841 310.243 531.841 308.313V288.794H527.165C526.794 288.794 526.497 288.596 526.275 288.2C526.052 287.804 525.941 287.161 525.941 286.271C525.941 285.8 525.966 285.405 526.015 285.083C526.089 284.761 526.176 284.502 526.275 284.304C526.374 284.081 526.497 283.933 526.646 283.858C526.819 283.759 527.005 283.71 527.203 283.71H531.841V275.769C531.841 275.595 531.878 275.435 531.953 275.286C532.052 275.138 532.212 275.014 532.435 274.915C532.682 274.791 533.004 274.705 533.4 274.655C533.796 274.606 534.29 274.581 534.884 274.581C535.503 274.581 536.01 274.606 536.406 274.655C536.802 274.705 537.111 274.791 537.333 274.915C537.556 275.014 537.717 275.138 537.816 275.286C537.915 275.435 537.964 275.595 537.964 275.769V283.71H546.537C546.734 283.71 546.908 283.759 547.056 283.858C547.205 283.933 547.328 284.081 547.427 284.304C547.551 284.502 547.637 284.761 547.687 285.083C547.736 285.405 547.761 285.8 547.761 286.271C547.761 287.161 547.65 287.804 547.427 288.2C547.205 288.596 546.908 288.794 546.537 288.794H537.964V307.423C537.964 309.724 538.298 311.468 538.966 312.655C539.659 313.818 540.884 314.399 542.64 314.399C543.209 314.399 543.716 314.35 544.162 314.251C544.607 314.127 545.003 314.004 545.349 313.88C545.695 313.756 545.992 313.645 546.24 313.546C546.487 313.422 546.71 313.36 546.908 313.36C547.031 313.36 547.143 313.397 547.242 313.472C547.365 313.521 547.452 313.632 547.501 313.806C547.576 313.979 547.637 314.214 547.687 314.511C547.736 314.808 547.761 315.179 547.761 315.624ZM581.566 318.11C581.566 318.407 581.467 318.63 581.269 318.778C581.071 318.927 580.799 319.038 580.453 319.112C580.107 319.187 579.599 319.224 578.932 319.224C578.288 319.224 577.769 319.187 577.373 319.112C577.002 319.038 576.73 318.927 576.557 318.778C576.383 318.63 576.297 318.407 576.297 318.11V314.771C574.837 316.329 573.204 317.541 571.398 318.407C569.617 319.273 567.724 319.706 565.721 319.706C563.964 319.706 562.368 319.471 560.933 319.001C559.523 318.556 558.311 317.9 557.297 317.034C556.307 316.168 555.528 315.104 554.959 313.843C554.415 312.581 554.142 311.146 554.142 309.538C554.142 307.658 554.526 306.025 555.293 304.64C556.06 303.254 557.161 302.104 558.596 301.188C560.03 300.273 561.787 299.593 563.865 299.147C565.943 298.677 568.281 298.442 570.879 298.442H575.48V295.845C575.48 294.558 575.344 293.42 575.072 292.431C574.8 291.441 574.355 290.625 573.736 289.981C573.142 289.313 572.363 288.819 571.398 288.497C570.433 288.151 569.246 287.978 567.836 287.978C566.327 287.978 564.966 288.163 563.754 288.534C562.566 288.881 561.515 289.276 560.599 289.722C559.709 290.142 558.954 290.538 558.336 290.909C557.742 291.256 557.297 291.429 557 291.429C556.802 291.429 556.629 291.379 556.48 291.28C556.332 291.181 556.196 291.033 556.072 290.835C555.973 290.637 555.899 290.39 555.849 290.093C555.8 289.771 555.775 289.425 555.775 289.054C555.775 288.435 555.812 287.953 555.887 287.606C555.986 287.235 556.196 286.889 556.517 286.567C556.864 286.246 557.445 285.875 558.262 285.454C559.078 285.009 560.018 284.613 561.082 284.267C562.146 283.896 563.308 283.599 564.57 283.376C565.832 283.129 567.106 283.005 568.392 283.005C570.792 283.005 572.833 283.277 574.516 283.821C576.198 284.366 577.558 285.17 578.598 286.233C579.637 287.272 580.391 288.571 580.861 290.13C581.331 291.688 581.566 293.507 581.566 295.585V318.11ZM575.48 302.858H570.248C568.566 302.858 567.106 303.007 565.869 303.304C564.632 303.576 563.605 303.996 562.789 304.565C561.973 305.11 561.366 305.778 560.971 306.569C560.599 307.336 560.414 308.227 560.414 309.241C560.414 310.973 560.958 312.358 562.047 313.397C563.16 314.412 564.706 314.919 566.685 314.919C568.293 314.919 569.778 314.511 571.139 313.694C572.524 312.878 573.971 311.629 575.48 309.946V302.858ZM601.196 288.794V307.423C601.196 309.724 601.53 311.468 602.198 312.655C602.89 313.818 604.115 314.399 605.871 314.399C606.44 314.399 606.948 314.35 607.393 314.251C607.838 314.127 608.234 314.004 608.58 313.88C608.927 313.756 609.224 313.645 609.471 313.546C609.718 313.422 609.941 313.36 610.139 313.36C610.263 313.36 610.374 313.397 610.473 313.472C610.597 313.521 610.683 313.632 610.733 313.806C610.807 313.979 610.869 314.214 610.918 314.511C610.968 314.808 610.993 315.179 610.993 315.624C610.993 316.341 610.943 316.91 610.844 317.331C610.745 317.752 610.584 318.061 610.362 318.259C610.164 318.457 609.867 318.642 609.471 318.815C609.1 318.989 608.655 319.125 608.135 319.224C607.64 319.347 607.108 319.446 606.539 319.521C605.97 319.595 605.401 319.632 604.832 319.632C603.101 319.632 601.616 319.409 600.379 318.964C599.142 318.494 598.128 317.801 597.336 316.886C596.545 315.946 595.963 314.771 595.592 313.36C595.246 311.925 595.073 310.243 595.073 308.313V288.794H590.397C590.026 288.794 589.729 288.596 589.506 288.2C589.284 287.804 589.172 287.161 589.172 286.271C589.172 285.8 589.197 285.405 589.246 285.083C589.321 284.761 589.407 284.502 589.506 284.304C589.605 284.081 589.729 283.933 589.877 283.858C590.05 283.759 590.236 283.71 590.434 283.71H595.073V275.769C595.073 275.595 595.11 275.435 595.184 275.286C595.283 275.138 595.444 275.014 595.666 274.915C595.914 274.791 596.235 274.705 596.631 274.655C597.027 274.606 597.522 274.581 598.116 274.581C598.734 274.581 599.241 274.606 599.637 274.655C600.033 274.705 600.342 274.791 600.565 274.915C600.787 275.014 600.948 275.138 601.047 275.286C601.146 275.435 601.196 275.595 601.196 275.769V283.71H617.784V274.173C617.784 273.975 617.833 273.802 617.932 273.653C618.031 273.505 618.192 273.394 618.414 273.319C618.662 273.22 618.983 273.146 619.379 273.097C619.775 273.022 620.27 272.985 620.864 272.985C621.457 272.985 621.952 273.022 622.348 273.097C622.744 273.146 623.053 273.22 623.276 273.319C623.523 273.394 623.696 273.505 623.795 273.653C623.894 273.802 623.944 273.975 623.944 274.173V283.71H645.43C646.148 283.71 646.642 283.883 646.914 284.229C647.211 284.551 647.36 285.034 647.36 285.677V318.073C647.36 318.271 647.31 318.444 647.211 318.593C647.112 318.716 646.939 318.828 646.692 318.927C646.469 319.026 646.16 319.1 645.764 319.149C645.368 319.199 644.861 319.224 644.243 319.224C643.674 319.224 643.191 319.199 642.795 319.149C642.399 319.1 642.078 319.026 641.83 318.927C641.583 318.828 641.41 318.716 641.311 318.593C641.237 318.444 641.2 318.271 641.2 318.073V288.794H623.944V307.423C623.944 309.724 624.278 311.468 624.946 312.655C625.614 313.818 626.826 314.399 628.582 314.399C629.127 314.399 629.621 314.35 630.067 314.251C630.537 314.127 630.945 314.004 631.291 313.88C631.638 313.756 631.935 313.645 632.182 313.546C632.454 313.422 632.677 313.36 632.85 313.36C632.998 313.36 633.122 313.397 633.221 313.472C633.32 313.521 633.394 313.632 633.444 313.806C633.518 313.979 633.58 314.214 633.629 314.511C633.679 314.808 633.703 315.179 633.703 315.624C633.703 316.341 633.654 316.91 633.555 317.331C633.456 317.752 633.295 318.061 633.073 318.259C632.875 318.457 632.59 318.642 632.219 318.815C631.848 318.989 631.403 319.125 630.883 319.224C630.388 319.347 629.844 319.446 629.25 319.521C628.681 319.595 628.125 319.632 627.58 319.632C625.824 319.632 624.327 319.409 623.09 318.964C621.853 318.494 620.839 317.801 620.047 316.886C619.28 315.946 618.711 314.771 618.34 313.36C617.969 311.925 617.784 310.243 617.784 308.313V288.794H601.196ZM648.028 273.394C648.028 274.828 647.756 275.806 647.211 276.325C646.667 276.845 645.665 277.104 644.205 277.104C642.771 277.104 641.781 276.857 641.237 276.362C640.717 275.843 640.457 274.878 640.457 273.468C640.457 272.033 640.73 271.056 641.274 270.536C641.818 270.017 642.82 269.757 644.28 269.757C645.715 269.757 646.692 270.017 647.211 270.536C647.756 271.031 648.028 271.983 648.028 273.394ZM666.358 318.073C666.358 318.271 666.309 318.444 666.21 318.593C666.111 318.716 665.95 318.828 665.727 318.927C665.505 319.026 665.196 319.1 664.8 319.149C664.404 319.199 663.897 319.224 663.278 319.224C662.684 319.224 662.19 319.199 661.794 319.149C661.398 319.1 661.076 319.026 660.829 318.927C660.606 318.828 660.446 318.716 660.347 318.593C660.272 318.444 660.235 318.271 660.235 318.073V268.495C660.235 268.297 660.272 268.124 660.347 267.976C660.446 267.827 660.606 267.703 660.829 267.604C661.076 267.506 661.398 267.431 661.794 267.382C662.19 267.332 662.684 267.308 663.278 267.308C663.897 267.308 664.404 267.332 664.8 267.382C665.196 267.431 665.505 267.506 665.727 267.604C665.95 267.703 666.111 267.827 666.21 267.976C666.309 268.124 666.358 268.297 666.358 268.495V318.073ZM707.697 299.927C707.697 300.892 707.449 301.584 706.954 302.005C706.484 302.401 705.94 302.599 705.322 302.599H683.427C683.427 304.454 683.613 306.124 683.984 307.608C684.355 309.093 684.973 310.367 685.839 311.431C686.705 312.494 687.831 313.311 689.216 313.88C690.602 314.449 692.296 314.733 694.3 314.733C695.884 314.733 697.294 314.61 698.531 314.362C699.768 314.09 700.831 313.793 701.722 313.472C702.637 313.15 703.38 312.866 703.949 312.618C704.542 312.346 704.988 312.21 705.285 312.21C705.458 312.21 705.606 312.259 705.73 312.358C705.878 312.433 705.99 312.556 706.064 312.729C706.138 312.903 706.188 313.15 706.212 313.472C706.262 313.769 706.286 314.14 706.286 314.585C706.286 314.907 706.274 315.191 706.249 315.438C706.225 315.661 706.188 315.871 706.138 316.069C706.113 316.243 706.051 316.403 705.953 316.552C705.878 316.7 705.767 316.849 705.619 316.997C705.495 317.121 705.099 317.343 704.431 317.665C703.763 317.962 702.897 318.259 701.833 318.556C700.77 318.853 699.533 319.112 698.122 319.335C696.737 319.582 695.253 319.706 693.669 319.706C690.923 319.706 688.511 319.323 686.433 318.556C684.38 317.789 682.648 316.651 681.238 315.142C679.828 313.632 678.764 311.74 678.046 309.464C677.329 307.188 676.97 304.541 676.97 301.522C676.97 298.653 677.341 296.08 678.083 293.804C678.826 291.503 679.889 289.561 681.275 287.978C682.685 286.369 684.38 285.145 686.359 284.304C688.338 283.438 690.552 283.005 693.001 283.005C695.624 283.005 697.85 283.425 699.681 284.267C701.536 285.108 703.058 286.246 704.245 287.681C705.433 289.091 706.299 290.761 706.843 292.69C707.412 294.595 707.697 296.636 707.697 298.813V299.927ZM701.536 298.108C701.611 294.892 700.893 292.369 699.384 290.538C697.9 288.707 695.686 287.792 692.742 287.792C691.232 287.792 689.909 288.076 688.771 288.646C687.633 289.215 686.68 289.969 685.913 290.909C685.147 291.849 684.553 292.95 684.132 294.212C683.712 295.449 683.477 296.748 683.427 298.108H701.536ZM738.088 286.864C738.088 287.409 738.075 287.866 738.051 288.237C738.026 288.608 737.976 288.905 737.902 289.128C737.828 289.326 737.729 289.487 737.605 289.61C737.506 289.709 737.358 289.759 737.16 289.759C736.962 289.759 736.715 289.709 736.418 289.61C736.146 289.487 735.824 289.375 735.453 289.276C735.107 289.153 734.711 289.041 734.266 288.942C733.82 288.843 733.338 288.794 732.818 288.794C732.2 288.794 731.594 288.918 731 289.165C730.406 289.412 729.775 289.821 729.107 290.39C728.464 290.959 727.784 291.713 727.066 292.653C726.349 293.593 725.557 294.744 724.691 296.104V318.073C724.691 318.271 724.642 318.444 724.543 318.593C724.444 318.716 724.283 318.828 724.06 318.927C723.838 319.026 723.529 319.1 723.133 319.149C722.737 319.199 722.23 319.224 721.611 319.224C721.017 319.224 720.523 319.199 720.127 319.149C719.731 319.1 719.409 319.026 719.162 318.927C718.939 318.828 718.779 318.716 718.68 318.593C718.605 318.444 718.568 318.271 718.568 318.073V284.675C718.568 284.477 718.605 284.316 718.68 284.192C718.754 284.044 718.902 283.92 719.125 283.821C719.348 283.698 719.632 283.623 719.978 283.599C720.325 283.549 720.782 283.524 721.351 283.524C721.896 283.524 722.341 283.549 722.687 283.599C723.058 283.623 723.343 283.698 723.541 283.821C723.739 283.92 723.875 284.044 723.949 284.192C724.048 284.316 724.098 284.477 724.098 284.675V289.536C725.013 288.2 725.866 287.112 726.658 286.271C727.474 285.429 728.241 284.774 728.959 284.304C729.676 283.809 730.381 283.475 731.074 283.302C731.792 283.104 732.509 283.005 733.226 283.005C733.548 283.005 733.907 283.03 734.303 283.079C734.723 283.104 735.156 283.166 735.601 283.265C736.047 283.364 736.443 283.475 736.789 283.599C737.16 283.722 737.42 283.846 737.568 283.97C737.717 284.093 737.816 284.217 737.865 284.341C737.915 284.44 737.952 284.576 737.976 284.749C738.026 284.922 738.051 285.182 738.051 285.528C738.075 285.85 738.088 286.295 738.088 286.864Z" fill="#7A774C"/>
</svg>
