<svg width="32" height="32" viewBox="0 0 32 32" fill="none" xmlns="http://www.w3.org/2000/svg">
<path d="M16.0013 30.3337C23.9174 30.3337 30.3346 23.9164 30.3346 16.0003C30.3346 8.08424 23.9174 1.66699 16.0013 1.66699C8.08522 1.66699 1.66797 8.08424 1.66797 16.0003C1.66797 23.9164 8.08522 30.3337 16.0013 30.3337Z" stroke="#5F6368" stroke-width="1.3" stroke-linecap="round" stroke-linejoin="round"/>
<path d="M9.76651 28.9083C9.40984 26.2283 9.52184 23.0323 10.3352 22.8637C11.1485 22.695 11.4818 27.525 11.4972 29.6103" stroke="#5F6368" stroke-width="1.3" stroke-linecap="round" stroke-linejoin="round"/>
<path d="M7.22321 27.3338C8.34121 22.7244 6.96721 19.2758 6.85521 18.3784C6.74321 17.4811 7.91521 15.0704 7.83654 13.2478C7.72454 10.6404 9.79921 9.40643 9.79921 8.42509C9.79921 7.44376 9.74321 4.41576 12.0705 4.49976C14.3979 4.58376 11.5352 7.52776 11.4939 8.39709C11.4525 9.26643 13.2199 9.57509 14.0605 12.2384C14.9012 14.9018 15.3505 15.5184 17.4812 15.1824C19.6119 14.8464 21.1825 13.9491 20.9859 12.9391C20.7892 11.9291 20.0325 9.37909 22.6125 8.87376C25.1925 8.36843 22.4999 12.0984 22.6125 12.7151C22.7252 13.3318 24.0699 13.6964 25.2759 12.0418C26.4819 10.3871 27.2945 9.07043 27.9959 9.91109C28.6972 10.7518 26.8459 13.1078 25.7245 14.1444C25.0782 14.6394 24.5869 15.3089 24.3087 16.0741C24.0305 16.8392 23.977 17.6679 24.1545 18.4624C24.6312 21.0978 25.3252 23.3404 26.8425 25.3731" stroke="#5F6368" stroke-width="1.3" stroke-linecap="round" stroke-linejoin="round"/>
<path d="M14.26 30.2283C13.558 27.0976 13.2213 21.3496 13.81 19.2469C14.3986 17.1443 15.9693 16.2749 18.184 17.9289C20.3986 19.5829 20.356 29.6583 20.356 29.6583M23.0666 28.4723C22.0053 26.5176 21.9686 23.5923 22.894 23.1443C23.8193 22.6963 25.002 27.1536 25.002 27.1536" stroke="#5F6368" stroke-width="1.3" stroke-linecap="round" stroke-linejoin="round"/>
</svg>
