<svg width="64" height="26" viewBox="0 0 64 26" fill="none" xmlns="http://www.w3.org/2000/svg">
<path d="M11.6939 3.35203C10.9439 4.23014 9.74366 4.92299 8.54354 4.82392C8.39354 3.63662 8.98104 2.37486 9.66866 1.59556C10.4187 0.692718 11.7314 0.049471 12.794 0C12.919 1.2369 12.4314 2.44906 11.6939 3.35203ZM12.7817 5.05903C11.0439 4.96009 9.55629 6.03609 8.73116 6.03609C7.89366 6.03609 6.63091 5.1085 5.25578 5.13324C3.46815 5.15797 1.8054 6.15976 0.892776 7.75545C-0.982477 10.9467 0.405275 15.6718 2.2179 18.2693C3.10553 19.5557 4.16816 20.9657 5.56828 20.9162C6.89354 20.8668 7.41854 20.0629 9.01879 20.0629C10.6314 20.0629 11.094 20.9162 12.4942 20.8915C13.9443 20.8668 14.8569 19.6053 15.7445 18.3188C16.7571 16.8592 17.1697 15.4367 17.1947 15.3625C17.1697 15.3378 14.3944 14.2865 14.3694 11.1199C14.3444 8.47291 16.5572 7.21127 16.6572 7.13706C15.4069 5.30639 13.4568 5.1085 12.7817 5.05903ZM22.8204 1.47189V20.7556H25.8457V14.1628H30.0337C33.8591 14.1628 36.547 11.5653 36.547 7.80505C36.547 4.04488 33.9091 1.47201 30.1337 1.47201L22.8204 1.47189ZM25.8457 3.99528H29.3336C31.959 3.99528 33.4591 5.38059 33.4591 7.81729C33.4591 10.254 31.9589 11.6518 29.3211 11.6518H25.8457V3.99528ZM42.0725 20.9039C43.9727 20.9039 45.7353 19.9515 46.5355 18.4424H46.598V20.7555H49.3984V11.157C49.3984 8.37396 47.1481 6.58039 43.6851 6.58039C40.4722 6.58039 38.097 8.3987 38.0095 10.8972H40.7348C40.9598 9.70981 42.0723 8.93051 43.5976 8.93051C45.4478 8.93051 46.4855 9.78401 46.4855 11.355V12.4186L42.71 12.6412C39.1971 12.8515 37.297 14.274 37.297 16.7479C37.297 19.2465 39.2596 20.9039 42.0725 20.9039ZM42.885 18.6156C41.2725 18.6156 40.2472 17.8488 40.2472 16.6736C40.2472 15.4616 41.2348 14.7565 43.1226 14.6452L46.4855 14.4349V15.5233C46.4855 17.3292 44.9353 18.6156 42.8851 18.6156M53.1364 26C56.0867 26 57.4744 24.8869 58.687 21.51L64 6.76591H60.9246L57.3617 18.1579H57.2992L53.7364 6.76591H50.5735L55.699 20.8049L55.424 21.6584C54.9615 23.1056 54.2114 23.6622 52.8737 23.6622C52.6362 23.6622 52.1737 23.6375 51.9861 23.6128V25.9258C52.1611 25.9753 52.9111 26 53.1362 26" fill="#5F6368"/>
</svg>
