<svg width="56" height="22" viewBox="0 0 56 22" fill="none" xmlns="http://www.w3.org/2000/svg">
<g clip-path="url(#clip0_279_26792)">
<path d="M39.6964 5.93705C41.2358 5.93705 42.4255 6.35106 43.3353 7.17908C44.245 8.00699 44.6647 9.11098 44.6647 10.4909V17.1147H42.7054V15.5969H42.6354C41.7957 16.8389 40.6061 17.4599 39.2065 17.4599C38.0168 17.4599 36.9672 17.1148 36.1275 16.4249C35.3577 15.7349 34.8678 14.769 34.8678 13.734C34.8678 12.63 35.2877 11.733 36.1275 11.043C36.9672 10.353 38.1568 10.077 39.5564 10.077C40.816 10.077 41.7957 10.2841 42.5654 10.767V10.2841C42.5654 9.64006 42.3216 8.99613 41.8339 8.57651L41.7256 8.49013C41.1658 8.0071 40.4661 7.73113 39.6964 7.73113C38.5068 7.73113 37.597 8.21412 36.9672 9.18011L35.1478 8.0759C36.2674 6.62692 37.7369 5.93705 39.6964 5.93705ZM29.8295 1.24512C31.0851 1.24512 32.2784 1.67595 33.2324 2.47938L33.3984 2.62497C34.378 3.45299 34.8678 4.69502 34.8678 6.00596C34.8678 7.3169 34.378 8.48991 33.3984 9.38684C32.4187 10.2838 31.229 10.7668 29.8295 10.7668L26.4705 10.6978V17.1147H24.3711V1.24512H29.8295ZM39.9762 11.7329C39.1365 11.7329 38.4367 11.9398 37.8769 12.3538C37.3171 12.6988 37.0372 13.1817 37.0372 13.8027C37.0372 14.3547 37.3172 14.8377 37.7369 15.1137C38.2268 15.4587 38.7866 15.6657 39.3465 15.6657C40.1302 15.6657 40.914 15.3651 41.527 14.8202L41.6557 14.6997C42.3555 14.0788 42.7054 13.3198 42.7054 12.4918C42.0756 12.0088 41.1658 11.7328 39.9763 11.7328M29.9696 3.17691H26.4707V8.69708H29.9696C30.7392 8.69708 31.509 8.42111 31.9989 7.86917C33.1185 6.8342 33.1185 5.10924 32.0689 4.07417L31.9989 4.00515C31.439 3.45321 30.7392 3.10822 29.9695 3.17723M56.0013 6.28204L49.0734 21.9446H46.9741L49.5632 16.4938L45.0146 6.35106H47.254L50.5429 14.1478H50.6129L53.8319 6.35106H56.0013V6.28204Z" fill="#5F6368"/>
<path d="M18.141 9.31796C18.141 8.697 18.071 8.07604 18.001 7.45508H9.25391V10.974H14.2223C14.0124 12.0779 13.3826 13.1129 12.4029 13.7339V16.0108H15.4119C17.1614 14.4239 18.1411 12.0779 18.1411 9.31807" fill="#4285F4"/>
<path d="M9.25347 18.2188C11.7726 18.2188 13.8719 17.3908 15.4115 16.0108L12.4025 13.7339C11.5627 14.2858 10.513 14.6308 9.25347 14.6308C6.87413 14.6308 4.77478 13.0439 4.075 10.8359H0.996094V13.1818C2.60555 16.2868 5.75456 18.2188 9.25347 18.2188Z" fill="#34A853"/>
<path d="M4.07616 10.8365C3.65638 9.73252 3.65638 8.4906 4.07616 7.31759V4.97168H0.997254C-0.332418 7.52465 -0.332418 10.5605 0.997254 13.1824L4.07616 10.8365Z" fill="#FBBC04"/>
<path d="M9.25389 3.59164C10.5835 3.59164 11.843 4.07467 12.8228 4.97161L15.4819 2.34972C13.8024 0.831723 11.5631 -0.0652084 9.32378 0.00370338C5.82488 0.00370338 2.60597 1.93571 1.06641 5.04063L4.14542 7.38654C4.7752 5.17856 6.87455 3.59164 9.25389 3.59164Z" fill="#EA4335"/>
</g>
<defs>
<clipPath id="clip0_279_26792">
<rect width="56" height="22" fill="white"/>
</clipPath>
</defs>
</svg>
